<?xml version="1.0" encoding="utf-8"?>
<!-- Generator: Adobe Illustrator 15.0.0, SVG Export Plug-In . SVG Version: 6.00 Build 0)  -->
<!DOCTYPE svg PUBLIC "-//W3C//DTD SVG 1.1//EN" "http://www.w3.org/Graphics/SVG/1.1/DTD/svg11.dtd">
<svg version="1.1" id="Layer_1" xmlns="http://www.w3.org/2000/svg" xmlns:xlink="http://www.w3.org/1999/xlink" x="0px" y="0px"
	 width="623px" height="499px" viewBox="0 0 623 499" enable-background="new 0 0 623 499" xml:space="preserve">
<g>
	<defs>
		<rect id="SVGID_1_" x="0.4" width="622.2" height="498.999"/>
	</defs>
	<clipPath id="SVGID_2_">
		<use xlink:href="#SVGID_1_"  overflow="visible"/>
	</clipPath>
	<g clip-path="url(#SVGID_2_)">
		<defs>
			<rect id="SVGID_3_" x="0.4" width="622.2" height="498.999"/>
		</defs>
		<clipPath id="SVGID_4_">
			<use xlink:href="#SVGID_3_"  overflow="visible"/>
		</clipPath>
		<g opacity="0.3" clip-path="url(#SVGID_4_)">
			<g>
				<defs>
					<rect id="SVGID_5_" x="0.4" y="248.414" width="125.851" height="76.733"/>
				</defs>
				<clipPath id="SVGID_6_">
					<use xlink:href="#SVGID_5_"  overflow="visible"/>
				</clipPath>
				<path clip-path="url(#SVGID_6_)" fill="#6EE8FC" d="M63.179,325.148c-9.352,0-18.873-1.263-27.891-3.917
					c-18.083-5.319-30.452-15.3-33.936-27.379c-2.444-8.466-0.148-17.252,6.463-24.745l0.002-0.002l0.711-0.802
					c15.848-17.961,52.236-24.976,82.834-15.976c18.083,5.321,30.452,15.3,33.937,27.379c2.442,8.469,0.146,17.254-6.465,24.745
					l-0.711,0.806C106.947,317.923,85.553,325.148,63.179,325.148 M14.099,274.656c-4.713,5.343-6.337,11.177-4.694,16.874
					c2.635,9.134,13.196,17.231,28.249,21.66c27.27,8.024,60.548,1.975,74.188-13.481l0.711-0.806
					c4.711-5.341,6.335-11.174,4.694-16.872c-2.636-9.134-13.195-17.233-28.248-21.662c-27.269-8.021-60.547-1.975-74.188,13.481
					L14.099,274.656z"/>
			</g>
		</g>
		<path clip-path="url(#SVGID_4_)" fill="#6EE8FC" d="M62.845,321.427c-8.951,0-18.027-1.185-26.532-3.686
			c-16.864-4.963-28.334-14.036-31.466-24.896c-2.115-7.333-0.144-14.707,5.695-21.33l0.711-0.803
			c14.741-16.705,50.22-23.381,79.082-14.892c16.866,4.963,28.336,14.036,31.467,24.897c2.115,7.332,0.146,14.706-5.694,21.327
			l-0.712,0.804C105,314.632,84.28,321.427,62.845,321.427 M11.373,272.248c-5.582,6.323-7.468,13.339-5.464,20.289
			c2.981,10.338,14.465,19.362,30.72,24.145c28.494,8.382,63.458,1.846,77.938-14.565l0.711-0.805
			c5.582-6.32,7.469-13.337,5.464-20.288c-2.983-10.337-14.464-19.362-30.717-24.146c-28.495-8.38-63.459-1.846-77.942,14.565
			L11.373,272.248z"/>
	</g>
	<g clip-path="url(#SVGID_2_)">
		<defs>
			<path id="SVGID_7_" d="M26.365,305.404c-9.823-5.673-15.235-13.197-15.235-21.188c0-7.989,5.412-15.515,15.235-21.183
				c10.196-5.89,23.589-8.831,36.982-8.831c13.396,0,26.788,2.941,36.984,8.831c9.824,5.668,15.235,13.195,15.235,21.187
				s-5.411,15.514-15.233,21.186c-10.198,5.887-23.589,8.83-36.982,8.83C49.959,314.235,36.561,311.29,26.365,305.404
				 M26.077,262.531c-10.009,5.78-15.521,13.483-15.521,21.685c0,8.205,5.512,15.906,15.521,21.685
				c10.278,5.936,23.776,8.9,37.274,8.9c13.497,0,26.997-2.965,37.271-8.896c10.009-5.78,15.523-13.481,15.523-21.685
				c0-8.205-5.514-15.908-15.525-21.688c-10.277-5.933-23.774-8.899-37.271-8.899C49.851,253.632,36.353,256.599,26.077,262.531"/>
		</defs>
		<clipPath id="SVGID_8_">
			<use xlink:href="#SVGID_7_"  overflow="visible"/>
		</clipPath>
		
			<linearGradient id="SVGID_9_" gradientUnits="userSpaceOnUse" x1="134.3608" y1="389.5283" x2="136.1392" y2="389.5283" gradientTransform="matrix(59.3691 0 0 -59.3691 -7966.3418 23410.1445)">
			<stop  offset="0" style="stop-color:#D4088C"/>
			<stop  offset="0.2258" style="stop-color:#D4088C"/>
			<stop  offset="0.5108" style="stop-color:#6EE1F8"/>
			<stop  offset="0.7796" style="stop-color:#6EE8FC"/>
			<stop  offset="1" style="stop-color:#6EE8FC"/>
		</linearGradient>
		<rect x="10.555" y="253.632" clip-path="url(#SVGID_8_)" fill="url(#SVGID_9_)" width="105.59" height="61.169"/>
	</g>
	<g clip-path="url(#SVGID_2_)">
		<defs>
			<rect id="SVGID_10_" x="0.4" width="622.2" height="498.999"/>
		</defs>
		<clipPath id="SVGID_11_">
			<use xlink:href="#SVGID_10_"  overflow="visible"/>
		</clipPath>
		<g opacity="0.6" clip-path="url(#SVGID_11_)">
			<g>
				<defs>
					<rect id="SVGID_12_" x="19.014" y="258.62" width="88.671" height="51.195"/>
				</defs>
				<clipPath id="SVGID_13_">
					<use xlink:href="#SVGID_12_"  overflow="visible"/>
				</clipPath>
				<path clip-path="url(#SVGID_13_)" fill="#0C0F38" d="M94.699,302.317c-17.313,9.996-45.386,9.996-62.7,0
					c-17.314-9.997-17.314-26.202,0-36.199c17.312-9.997,45.384-9.997,62.7,0C112.013,276.115,112.013,292.322,94.699,302.317"/>
			</g>
		</g>
	</g>
	<g clip-path="url(#SVGID_2_)">
		<defs>
			<path id="SVGID_14_" d="M26.221,249.653c-2.299,1.327-4.3,2.758-6.084,4.252h-9.295v17.183
				c0.002,7.76,5.127,15.519,15.381,21.438c20.504,11.84,53.751,11.84,74.255,0c10.266-5.926,15.387-13.695,15.375-21.464v-17.156
				h-9.293c-1.784-1.494-3.786-2.926-6.082-4.252c-10.253-5.918-23.691-8.877-37.129-8.877
				C49.911,240.775,36.473,243.735,26.221,249.653"/>
		</defs>
		<clipPath id="SVGID_15_">
			<use xlink:href="#SVGID_14_"  overflow="visible"/>
		</clipPath>
		
			<linearGradient id="SVGID_16_" gradientUnits="userSpaceOnUse" x1="134.3516" y1="389.5986" x2="136.1304" y2="389.5986" gradientTransform="matrix(59.0441 0 0 -59.0441 -7921.814 23276.1133)">
			<stop  offset="0" style="stop-color:#A31FA9"/>
			<stop  offset="0.0665" style="stop-color:#8B17A0"/>
			<stop  offset="0.1495" style="stop-color:#750F98"/>
			<stop  offset="0.2398" style="stop-color:#640A92"/>
			<stop  offset="0.3414" style="stop-color:#5B078F"/>
			<stop  offset="0.4785" style="stop-color:#58068E"/>
			<stop  offset="0.621" style="stop-color:#4E20A2"/>
			<stop  offset="0.9248" style="stop-color:#3363D6"/>
			<stop  offset="1" style="stop-color:#2C75E4"/>
		</linearGradient>
		<rect x="10.842" y="240.775" clip-path="url(#SVGID_15_)" fill="url(#SVGID_16_)" width="105.023" height="63.59"/>
	</g>
	<g clip-path="url(#SVGID_2_)">
		<defs>
			<rect id="SVGID_17_" x="0.4" width="622.2" height="498.999"/>
		</defs>
		<clipPath id="SVGID_18_">
			<use xlink:href="#SVGID_17_"  overflow="visible"/>
		</clipPath>
		<path clip-path="url(#SVGID_18_)" fill="#D4088C" d="M11.325,270.643v-16.739h-0.482v17.186c0,6.946,4.141,13.881,12.358,19.505
			C15.294,284.744,11.325,277.696,11.325,270.643"/>
		<path clip-path="url(#SVGID_18_)" fill="#6EE8FC" d="M115.026,253.903v16.605c0.012,7.77-5.112,15.538-15.377,21.464
			c-20.502,11.841-53.749,11.841-74.255,0c-1.042-0.603-1.997-1.236-2.933-1.872c1.168,0.834,2.415,1.646,3.761,2.425
			c20.505,11.838,53.751,11.838,74.255,0c10.266-5.926,15.39-13.693,15.377-21.464v-17.158H115.026z"/>
	</g>
	<g clip-path="url(#SVGID_2_)">
		<defs>
			<path id="SVGID_19_" d="M26.221,232.466c-20.505,11.839-20.505,31.035,0.002,42.872c20.504,11.84,53.751,11.84,74.255,0.003
				c20.506-11.84,20.504-31.034,0-42.873c-10.255-5.921-23.691-8.88-37.13-8.88C49.911,223.587,36.473,226.549,26.221,232.466"/>
		</defs>
		<clipPath id="SVGID_20_">
			<use xlink:href="#SVGID_19_"  overflow="visible"/>
		</clipPath>
		
			<linearGradient id="SVGID_21_" gradientUnits="userSpaceOnUse" x1="134.9302" y1="388.4121" x2="136.7091" y2="388.4121" gradientTransform="matrix(41.7515 24.1059 41.7515 -24.1059 -21825.4063 6343.647)">
			<stop  offset="0" style="stop-color:#8D139B"/>
			<stop  offset="0.1652" style="stop-color:#851CA1"/>
			<stop  offset="0.4291" style="stop-color:#6E33B2"/>
			<stop  offset="0.7568" style="stop-color:#4958CD"/>
			<stop  offset="1" style="stop-color:#2979E4"/>
		</linearGradient>
		<polygon clip-path="url(#SVGID_20_)" fill="url(#SVGID_21_)" points="63.35,190.311 176.053,255.383 63.35,320.454 
			-49.353,255.383 		"/>
	</g>
	<g clip-path="url(#SVGID_2_)">
		<defs>
			<rect id="SVGID_22_" x="0.4" width="622.2" height="498.999"/>
		</defs>
		<clipPath id="SVGID_23_">
			<use xlink:href="#SVGID_22_"  overflow="visible"/>
		</clipPath>
		<path clip-path="url(#SVGID_23_)" fill="#D4088C" d="M27.639,232.781c10.415-6.014,24.021-9.05,37.671-9.14
			c-14.084-0.302-28.337,2.618-39.09,8.825c-15.975,9.223-19.645,23.082-10.525,34.096C7.844,255.293,11.819,241.914,27.639,232.781
			"/>
		<path clip-path="url(#SVGID_23_)" fill="#6EE8FC" d="M100.477,232.467c-5.448-3.145-11.808-5.427-18.575-6.902
			c6.079,1.478,11.781,3.63,16.732,6.488c20.507,11.84,20.507,31.033,0.001,42.871c-15.057,8.696-36.973,10.978-55.681,6.902
			c19.094,4.645,41.969,2.492,57.522-6.487C120.984,263.501,120.982,244.307,100.477,232.467"/>
		<path clip-path="url(#SVGID_23_)" fill="#6DE0F6" d="M86.823,267.602c-13.104,7.565-34.351,7.565-47.455,0
			c-13.104-7.565-13.104-19.832-0.001-27.398c13.106-7.565,34.351-7.565,47.457,0C99.927,247.77,99.927,260.036,86.823,267.602"/>
		<path clip-path="url(#SVGID_23_)" fill="#18D0F7" d="M39.367,250.587c13.104-7.565,34.35-7.565,47.455,0
			c4.242,2.449,7.087,5.395,8.583,8.509c3.127-6.509,0.282-13.774-8.583-18.893c-13.104-7.565-34.35-7.565-47.455,0
			c-8.862,5.117-11.708,12.383-8.583,18.893C32.282,255.98,35.127,253.034,39.367,250.587"/>
		<path clip-path="url(#SVGID_23_)" fill="#25BFEC" d="M39.367,246.919c13.104-7.564,34.35-7.564,47.455,0
			c5.067,2.925,8.151,6.556,9.3,10.341c1.823-6.006-1.261-12.417-9.3-17.057c-13.104-7.565-34.35-7.565-47.455,0
			c-8.038,4.64-11.121,11.051-9.298,17.057C31.218,253.476,34.301,249.845,39.367,246.919"/>
		<path clip-path="url(#SVGID_23_)" fill="#267FE5" d="M39.367,243.654c13.104-7.565,34.35-7.565,47.455,0
			c5.791,3.344,9.014,7.606,9.686,11.974c0.849-5.516-2.373-11.202-9.686-15.424c-13.104-7.565-34.35-7.565-47.455,0
			c-7.312,4.222-10.532,9.907-9.684,15.422C30.355,251.258,33.578,246.997,39.367,243.654"/>
		<path clip-path="url(#SVGID_23_)" fill="#6EE8FC" d="M90.52,230.491c-1.059-0.377-2.445-0.187-3.099,0.426
			c-0.65,0.611-0.319,1.412,0.738,1.787c1.059,0.377,2.444,0.187,3.097-0.425C91.908,231.669,91.578,230.867,90.52,230.491"/>
		<g opacity="0.8" clip-path="url(#SVGID_23_)">
			<g>
				<defs>
					<rect id="SVGID_24_" x="94.212" y="233.746" width="4.427" height="2.556"/>
				</defs>
				<clipPath id="SVGID_25_">
					<use xlink:href="#SVGID_24_"  overflow="visible"/>
				</clipPath>
				<path clip-path="url(#SVGID_25_)" fill="#6EE8FC" d="M97.932,234.087c-0.896-0.48-2.296-0.45-3.128,0.068
					c-0.831,0.518-0.779,1.325,0.117,1.805c0.895,0.48,2.296,0.45,3.126-0.066C98.88,235.377,98.826,234.568,97.932,234.087"/>
			</g>
		</g>
		<g opacity="0.6" clip-path="url(#SVGID_23_)">
			<g>
				<defs>
					<rect id="SVGID_26_" x="100.005" y="237.904" width="4.426" height="2.556"/>
				</defs>
				<clipPath id="SVGID_27_">
					<use xlink:href="#SVGID_26_"  overflow="visible"/>
				</clipPath>
				<path clip-path="url(#SVGID_27_)" fill="#6EE8FC" d="M104.011,238.433c-0.714-0.571-2.101-0.7-3.089-0.286
					c-0.991,0.414-1.213,1.213-0.499,1.784c0.717,0.572,2.101,0.701,3.092,0.287C104.505,239.805,104.728,239.006,104.011,238.433"
					/>
			</g>
		</g>
		<g opacity="0.4" clip-path="url(#SVGID_23_)">
			<g>
				<defs>
					<rect id="SVGID_28_" x="104.281" y="242.635" width="4.428" height="2.556"/>
				</defs>
				<clipPath id="SVGID_29_">
					<use xlink:href="#SVGID_28_"  overflow="visible"/>
				</clipPath>
				<path clip-path="url(#SVGID_29_)" fill="#6EE8FC" d="M108.506,243.381c-0.509-0.642-1.823-0.924-2.933-0.63
					c-1.111,0.295-1.601,1.054-1.091,1.695c0.509,0.64,1.824,0.923,2.934,0.628C108.528,244.781,109.017,244.022,108.506,243.381"/>
			</g>
		</g>
		<g opacity="0.2" clip-path="url(#SVGID_23_)">
			<g>
				<defs>
					<rect id="SVGID_30_" x="106.876" y="247.757" width="4.427" height="2.556"/>
				</defs>
				<clipPath id="SVGID_31_">
					<use xlink:href="#SVGID_30_"  overflow="visible"/>
				</clipPath>
				<path clip-path="url(#SVGID_31_)" fill="#6EE8FC" d="M111.244,248.739c-0.283-0.686-1.476-1.111-2.666-0.947
					c-1.188,0.163-1.924,0.852-1.64,1.54c0.283,0.686,1.475,1.11,2.665,0.947C110.792,250.115,111.527,249.426,111.244,248.739"/>
			</g>
		</g>
		<g opacity="0.1" clip-path="url(#SVGID_23_)">
			<g>
				<defs>
					<rect id="SVGID_32_" x="107.692" y="253.073" width="4.427" height="2.557"/>
				</defs>
				<clipPath id="SVGID_33_">
					<use xlink:href="#SVGID_32_"  overflow="visible"/>
				</clipPath>
				<path clip-path="url(#SVGID_33_)" fill="#6EE8FC" d="M111.894,254.91c0.536-0.632,0.08-1.397-1.017-1.707
					c-1.1-0.311-2.425-0.045-2.96,0.587c-0.538,0.636-0.082,1.398,1.015,1.709C110.032,255.809,111.357,255.546,111.894,254.91"/>
			</g>
		</g>
	</g>
	<g clip-path="url(#SVGID_2_)">
		<defs>
			<path id="SVGID_34_" d="M26.221,212.723c-2.299,1.327-4.3,2.758-6.084,4.248h-9.295v17.188
				c0.002,7.757,5.127,15.514,15.381,21.434c20.504,11.839,53.751,11.84,74.255,0c10.266-5.925,15.387-13.694,15.375-21.462v-17.16
				h-9.293c-1.784-1.49-3.786-2.921-6.082-4.248c-10.253-5.919-23.691-8.879-37.129-8.879
				C49.911,203.844,36.473,206.803,26.221,212.723"/>
		</defs>
		<clipPath id="SVGID_35_">
			<use xlink:href="#SVGID_34_"  overflow="visible"/>
		</clipPath>
		
			<linearGradient id="SVGID_36_" gradientUnits="userSpaceOnUse" x1="134.3516" y1="389.874" x2="136.1304" y2="389.874" gradientTransform="matrix(59.0441 0 0 -59.0441 -7921.814 23255.332)">
			<stop  offset="0" style="stop-color:#A31FA9"/>
			<stop  offset="0.0665" style="stop-color:#8B17A0"/>
			<stop  offset="0.1495" style="stop-color:#750F98"/>
			<stop  offset="0.2398" style="stop-color:#640A92"/>
			<stop  offset="0.3414" style="stop-color:#5B078F"/>
			<stop  offset="0.4785" style="stop-color:#58068E"/>
			<stop  offset="0.621" style="stop-color:#4E20A2"/>
			<stop  offset="0.9248" style="stop-color:#3363D6"/>
			<stop  offset="1" style="stop-color:#2C75E4"/>
		</linearGradient>
		<rect x="10.842" y="203.844" clip-path="url(#SVGID_35_)" fill="url(#SVGID_36_)" width="105.023" height="63.589"/>
	</g>
	<g clip-path="url(#SVGID_2_)">
		<defs>
			<rect id="SVGID_37_" x="0.4" width="622.2" height="498.999"/>
		</defs>
		<clipPath id="SVGID_38_">
			<use xlink:href="#SVGID_37_"  overflow="visible"/>
		</clipPath>
		<path clip-path="url(#SVGID_38_)" fill="#D4088C" d="M11.325,233.712v-16.741h-0.482v17.185c0,6.946,4.141,13.88,12.358,19.506
			C15.294,247.813,11.325,240.765,11.325,233.712"/>
		<path clip-path="url(#SVGID_38_)" fill="#6EE8FC" d="M115.026,216.971v16.609c0.012,7.766-5.112,15.537-15.377,21.462
			c-20.502,11.839-53.749,11.839-74.255-0.001c-1.042-0.603-1.997-1.235-2.933-1.873c1.168,0.836,2.415,1.646,3.761,2.425
			c20.505,11.839,53.751,11.84,74.255,0c10.266-5.925,15.39-13.694,15.377-21.462v-17.16H115.026z"/>
	</g>
	<g clip-path="url(#SVGID_2_)">
		<defs>
			<path id="SVGID_39_" d="M26.221,195.537c-20.505,11.837-20.505,31.031,0.002,42.871c20.504,11.837,53.751,11.837,74.255,0
				c20.506-11.837,20.504-31.034,0-42.871c-10.253-5.921-23.691-8.881-37.129-8.881C49.911,186.656,36.473,189.616,26.221,195.537"
				/>
		</defs>
		<clipPath id="SVGID_40_">
			<use xlink:href="#SVGID_39_"  overflow="visible"/>
		</clipPath>
		
			<linearGradient id="SVGID_41_" gradientUnits="userSpaceOnUse" x1="134.5947" y1="388.7471" x2="136.3737" y2="388.7471" gradientTransform="matrix(41.7515 24.1059 41.7515 -24.1059 -21825.4063 6322.8813)">
			<stop  offset="0" style="stop-color:#8D139B"/>
			<stop  offset="0.1652" style="stop-color:#851CA1"/>
			<stop  offset="0.4291" style="stop-color:#6E33B2"/>
			<stop  offset="0.7568" style="stop-color:#4958CD"/>
			<stop  offset="1" style="stop-color:#2979E4"/>
		</linearGradient>
		<polygon clip-path="url(#SVGID_40_)" fill="url(#SVGID_41_)" points="63.35,153.38 176.053,218.451 63.35,283.521 
			-49.353,218.451 		"/>
	</g>
	<g clip-path="url(#SVGID_2_)">
		<defs>
			<rect id="SVGID_42_" x="0.4" width="622.2" height="498.999"/>
		</defs>
		<clipPath id="SVGID_43_">
			<use xlink:href="#SVGID_42_"  overflow="visible"/>
		</clipPath>
		<path clip-path="url(#SVGID_43_)" fill="#D4088C" d="M27.639,195.849c10.415-6.013,24.021-9.049,37.671-9.139
			c-14.084-0.302-28.337,2.617-39.09,8.825c-15.975,9.224-19.645,23.082-10.525,34.096C7.844,218.358,11.819,204.982,27.639,195.849
			"/>
		<path clip-path="url(#SVGID_43_)" fill="#6EE8FC" d="M100.477,195.536c-5.448-3.146-11.808-5.428-18.575-6.902
			c6.079,1.478,11.781,3.63,16.732,6.488c20.507,11.84,20.507,31.034,0.001,42.871c-15.057,8.694-36.973,10.977-55.681,6.903
			c19.094,4.643,41.969,2.491,57.522-6.489C120.984,226.569,120.982,207.374,100.477,195.536"/>
		<path clip-path="url(#SVGID_43_)" fill="#6DE0F6" d="M86.823,230.67c-13.104,7.566-34.351,7.566-47.455,0
			c-13.104-7.566-13.104-19.833-0.001-27.398c13.106-7.566,34.351-7.566,47.457,0C99.927,210.838,99.927,223.104,86.823,230.67"/>
		<path clip-path="url(#SVGID_43_)" fill="#18D0F7" d="M39.367,213.655c13.104-7.566,34.35-7.564,47.455,0
			c4.242,2.449,7.087,5.393,8.583,8.509c3.127-6.51,0.282-13.775-8.583-18.892c-13.104-7.566-34.35-7.566-47.455,0
			c-8.862,5.117-11.708,12.382-8.583,18.89C32.282,219.048,35.127,216.104,39.367,213.655"/>
		<path clip-path="url(#SVGID_43_)" fill="#25BFEC" d="M39.367,209.988c13.104-7.565,34.35-7.564,47.455,0
			c5.067,2.926,8.151,6.556,9.3,10.342c1.823-6.008-1.261-12.418-9.3-17.058c-13.104-7.566-34.35-7.566-47.455,0
			c-8.038,4.64-11.121,11.048-9.298,17.056C31.218,216.542,34.301,212.914,39.367,209.988"/>
		<path clip-path="url(#SVGID_43_)" fill="#267FE5" d="M39.367,206.722c13.104-7.565,34.35-7.564,47.455,0
			c5.791,3.344,9.014,7.607,9.686,11.976c0.849-5.515-2.373-11.202-9.686-15.424c-13.104-7.566-34.35-7.566-47.455-0.002
			c-7.312,4.222-10.532,9.909-9.684,15.424C30.355,214.327,33.578,210.066,39.367,206.722"/>
		<path clip-path="url(#SVGID_43_)" fill="#6EE8FC" d="M90.52,193.56c-1.059-0.377-2.445-0.187-3.099,0.425
			c-0.65,0.611-0.319,1.412,0.738,1.787c1.059,0.377,2.444,0.187,3.097-0.424C91.908,194.737,91.578,193.936,90.52,193.56"/>
		<g opacity="0.8" clip-path="url(#SVGID_43_)">
			<g>
				<defs>
					<rect id="SVGID_44_" x="94.212" y="196.815" width="4.427" height="2.556"/>
				</defs>
				<clipPath id="SVGID_45_">
					<use xlink:href="#SVGID_44_"  overflow="visible"/>
				</clipPath>
				<path clip-path="url(#SVGID_45_)" fill="#6EE8FC" d="M97.932,197.156c-0.896-0.479-2.296-0.45-3.128,0.067
					c-0.831,0.516-0.779,1.325,0.117,1.806c0.895,0.48,2.296,0.45,3.126-0.068C98.88,198.446,98.826,197.636,97.932,197.156"/>
			</g>
		</g>
		<g opacity="0.6" clip-path="url(#SVGID_43_)">
			<g>
				<defs>
					<rect id="SVGID_46_" x="100.005" y="200.974" width="4.426" height="2.556"/>
				</defs>
				<clipPath id="SVGID_47_">
					<use xlink:href="#SVGID_46_"  overflow="visible"/>
				</clipPath>
				<path clip-path="url(#SVGID_47_)" fill="#6EE8FC" d="M104.011,201.501c-0.714-0.57-2.101-0.701-3.089-0.286
					c-0.991,0.413-1.213,1.212-0.499,1.784c0.717,0.572,2.101,0.701,3.092,0.287C104.505,202.873,104.728,202.075,104.011,201.501"
					/>
			</g>
		</g>
		<g opacity="0.4" clip-path="url(#SVGID_43_)">
			<g>
				<defs>
					<rect id="SVGID_48_" x="104.281" y="205.704" width="4.428" height="2.556"/>
				</defs>
				<clipPath id="SVGID_49_">
					<use xlink:href="#SVGID_48_"  overflow="visible"/>
				</clipPath>
				<path clip-path="url(#SVGID_49_)" fill="#6EE8FC" d="M108.506,206.449c-0.509-0.64-1.823-0.922-2.933-0.629
					c-1.111,0.294-1.601,1.053-1.091,1.694c0.509,0.641,1.824,0.923,2.934,0.629C108.528,207.849,109.017,207.092,108.506,206.449"
					/>
			</g>
		</g>
		<g opacity="0.2" clip-path="url(#SVGID_43_)">
			<g>
				<defs>
					<rect id="SVGID_50_" x="106.876" y="210.827" width="4.427" height="2.556"/>
				</defs>
				<clipPath id="SVGID_51_">
					<use xlink:href="#SVGID_50_"  overflow="visible"/>
				</clipPath>
				<path clip-path="url(#SVGID_51_)" fill="#6EE8FC" d="M111.244,211.809c-0.283-0.687-1.476-1.112-2.666-0.948
					c-1.188,0.163-1.924,0.852-1.64,1.538c0.283,0.687,1.475,1.112,2.665,0.948C110.792,213.184,111.527,212.495,111.244,211.809"/>
			</g>
		</g>
		<g opacity="0.1" clip-path="url(#SVGID_43_)">
			<g>
				<defs>
					<rect id="SVGID_52_" x="107.692" y="216.141" width="4.427" height="2.558"/>
				</defs>
				<clipPath id="SVGID_53_">
					<use xlink:href="#SVGID_52_"  overflow="visible"/>
				</clipPath>
				<path clip-path="url(#SVGID_53_)" fill="#6EE8FC" d="M111.894,217.98c0.536-0.633,0.08-1.399-1.017-1.709
					c-1.1-0.309-2.425-0.046-2.96,0.587c-0.538,0.635-0.082,1.4,1.015,1.709C110.032,218.877,111.357,218.614,111.894,217.98"/>
			</g>
		</g>
		<g opacity="0.5" clip-path="url(#SVGID_43_)">
			<g>
				<defs>
					<rect id="SVGID_54_" x="10.818" y="186.663" width="105.038" height="60.624"/>
				</defs>
				<clipPath id="SVGID_55_">
					<use xlink:href="#SVGID_54_"  overflow="visible"/>
				</clipPath>
				<path clip-path="url(#SVGID_55_)" fill="#6EE8FC" d="M115.856,195.239l-16.258-0.185c-19.776-10.91-50.663-11.182-70.985-0.81
					l-17.795-0.203v22.099h0.059c-0.378,8.033,4.727,16.136,15.345,22.267c20.504,11.837,53.751,11.839,74.257,0
					c10.618-6.131,15.722-14.234,15.343-22.267h0.034V195.239z"/>
			</g>
		</g>
	</g>
	<g clip-path="url(#SVGID_2_)">
		<defs>
			<path id="SVGID_56_" d="M26.221,175.79c-2.299,1.329-4.3,2.758-6.084,4.251h-9.295v17.188
				c0.002,7.756,5.127,15.515,15.381,21.435c20.504,11.838,53.751,11.838,74.255,0c10.266-5.926,15.387-13.697,15.375-21.463
				v-17.159h-9.293c-1.784-1.49-3.786-2.922-6.082-4.25c-10.253-5.921-23.693-8.88-37.13-8.88
				C49.909,166.911,36.473,169.87,26.221,175.79"/>
		</defs>
		<clipPath id="SVGID_57_">
			<use xlink:href="#SVGID_56_"  overflow="visible"/>
		</clipPath>
		
			<linearGradient id="SVGID_58_" gradientUnits="userSpaceOnUse" x1="134.3516" y1="390.1475" x2="136.1304" y2="390.1475" gradientTransform="matrix(59.0441 0 0 -59.0441 -7921.814 23234.582)">
			<stop  offset="0" style="stop-color:#A31FA9"/>
			<stop  offset="0.0665" style="stop-color:#8B17A0"/>
			<stop  offset="0.1495" style="stop-color:#750F98"/>
			<stop  offset="0.2398" style="stop-color:#640A92"/>
			<stop  offset="0.3414" style="stop-color:#5B078F"/>
			<stop  offset="0.4785" style="stop-color:#58068E"/>
			<stop  offset="0.621" style="stop-color:#4E20A2"/>
			<stop  offset="0.9248" style="stop-color:#3363D6"/>
			<stop  offset="1" style="stop-color:#2C75E4"/>
		</linearGradient>
		<rect x="10.842" y="166.911" clip-path="url(#SVGID_57_)" fill="url(#SVGID_58_)" width="105.023" height="63.59"/>
	</g>
	<g clip-path="url(#SVGID_2_)">
		<defs>
			<rect id="SVGID_59_" x="0.4" width="622.2" height="498.999"/>
		</defs>
		<clipPath id="SVGID_60_">
			<use xlink:href="#SVGID_59_"  overflow="visible"/>
		</clipPath>
		<path clip-path="url(#SVGID_60_)" fill="#D4088C" d="M11.325,196.781v-16.74h-0.482v17.185c0,6.946,4.141,13.88,12.358,19.505
			C15.294,210.881,11.325,203.833,11.325,196.781"/>
		<path clip-path="url(#SVGID_60_)" fill="#6EE8FC" d="M115.026,180.041v16.606c0.012,7.768-5.112,15.539-15.377,21.465
			c-20.502,11.838-53.749,11.838-74.255-0.002c-1.042-0.601-1.997-1.236-2.933-1.873c1.168,0.836,2.415,1.649,3.761,2.426
			c20.505,11.839,53.751,11.839,74.255,0c10.266-5.926,15.39-13.695,15.377-21.463v-17.159H115.026z"/>
	</g>
	<g clip-path="url(#SVGID_2_)">
		<defs>
			<path id="SVGID_61_" d="M26.221,158.604c-20.505,11.838-20.505,31.034,0.002,42.871c20.504,11.84,53.751,11.84,74.255,0
				c20.506-11.837,20.504-31.031,0-42.87c-10.255-5.921-23.691-8.879-37.13-8.879C49.911,149.727,36.473,152.684,26.221,158.604"/>
		</defs>
		<clipPath id="SVGID_62_">
			<use xlink:href="#SVGID_61_"  overflow="visible"/>
		</clipPath>
		
			<linearGradient id="SVGID_63_" gradientUnits="userSpaceOnUse" x1="134.2593" y1="389.083" x2="136.0379" y2="389.083" gradientTransform="matrix(41.7515 24.1059 41.7515 -24.1059 -21825.4063 6302.1167)">
			<stop  offset="0" style="stop-color:#8D139B"/>
			<stop  offset="0.1652" style="stop-color:#851CA1"/>
			<stop  offset="0.4291" style="stop-color:#6E33B2"/>
			<stop  offset="0.7568" style="stop-color:#4958CD"/>
			<stop  offset="1" style="stop-color:#2979E4"/>
		</linearGradient>
		<polygon clip-path="url(#SVGID_62_)" fill="url(#SVGID_63_)" points="63.35,116.449 176.053,181.52 63.35,246.591 -49.353,181.52 
					"/>
	</g>
	<g clip-path="url(#SVGID_2_)">
		<defs>
			<rect id="SVGID_64_" x="0.4" width="622.2" height="498.999"/>
		</defs>
		<clipPath id="SVGID_65_">
			<use xlink:href="#SVGID_64_"  overflow="visible"/>
		</clipPath>
		<path clip-path="url(#SVGID_65_)" fill="#D4088C" d="M27.639,158.917c10.415-6.013,24.021-9.049,37.671-9.138
			c-14.084-0.302-28.337,2.616-39.09,8.825c-15.975,9.222-19.645,23.08-10.525,34.094C7.844,181.428,11.819,168.05,27.639,158.917"
			/>
		<path clip-path="url(#SVGID_65_)" fill="#6EE8FC" d="M100.477,158.604c-5.448-3.145-11.808-5.429-18.575-6.902
			c6.079,1.478,11.781,3.63,16.732,6.488c20.507,11.84,20.507,31.034,0.001,42.872c-15.057,8.693-36.973,10.978-55.681,6.903
			c19.094,4.644,41.969,2.492,57.522-6.489C120.984,189.638,120.982,170.442,100.477,158.604"/>
		<path clip-path="url(#SVGID_65_)" fill="#6DE0F6" d="M86.823,193.739c-13.104,7.566-34.351,7.565-47.455,0
			c-13.104-7.565-13.104-19.832-0.001-27.398c13.106-7.565,34.351-7.565,47.457,0C99.927,173.907,99.927,186.173,86.823,193.739"/>
		<path clip-path="url(#SVGID_65_)" fill="#18D0F7" d="M39.367,176.724c13.104-7.565,34.35-7.565,47.455,0
			c4.242,2.45,7.087,5.393,8.583,8.509c3.127-6.509,0.282-13.775-8.583-18.892c-13.104-7.565-34.35-7.565-47.455,0
			c-8.862,5.117-11.708,12.382-8.583,18.89C32.282,182.117,35.127,179.174,39.367,176.724"/>
		<path clip-path="url(#SVGID_65_)" fill="#25BFEC" d="M39.367,173.057c13.104-7.566,34.35-7.566,47.455,0
			c5.067,2.926,8.151,6.556,9.3,10.343c1.823-6.009-1.261-12.418-9.3-17.059c-13.104-7.565-34.35-7.565-47.455,0
			c-8.038,4.64-11.121,11.048-9.298,17.057C31.218,179.61,34.301,175.982,39.367,173.057"/>
		<path clip-path="url(#SVGID_65_)" fill="#267FE5" d="M39.367,169.791c13.104-7.566,34.35-7.566,47.455,0
			c5.791,3.344,9.014,7.607,9.686,11.975c0.849-5.517-2.373-11.202-9.686-15.424c-13.104-7.565-34.35-7.567-47.455-0.001
			c-7.312,4.222-10.532,9.909-9.684,15.424C30.355,177.396,33.578,173.135,39.367,169.791"/>
		<path clip-path="url(#SVGID_65_)" fill="#6EE8FC" d="M90.52,156.628c-1.059-0.375-2.445-0.185-3.099,0.425
			c-0.65,0.611-0.319,1.412,0.738,1.789c1.059,0.375,2.444,0.185,3.097-0.425C91.908,157.805,91.578,157.005,90.52,156.628"/>
		<g opacity="0.8" clip-path="url(#SVGID_65_)">
			<g>
				<defs>
					<rect id="SVGID_66_" x="94.212" y="159.884" width="4.427" height="2.554"/>
				</defs>
				<clipPath id="SVGID_67_">
					<use xlink:href="#SVGID_66_"  overflow="visible"/>
				</clipPath>
				<path clip-path="url(#SVGID_67_)" fill="#6EE8FC" d="M97.932,160.225c-0.896-0.48-2.296-0.45-3.128,0.068
					c-0.831,0.516-0.779,1.325,0.117,1.805c0.895,0.48,2.296,0.45,3.126-0.067C98.88,161.513,98.826,160.705,97.932,160.225"/>
			</g>
		</g>
		<g opacity="0.6" clip-path="url(#SVGID_65_)">
			<g>
				<defs>
					<rect id="SVGID_68_" x="100.005" y="164.042" width="4.426" height="2.556"/>
				</defs>
				<clipPath id="SVGID_69_">
					<use xlink:href="#SVGID_68_"  overflow="visible"/>
				</clipPath>
				<path clip-path="url(#SVGID_69_)" fill="#6EE8FC" d="M104.011,164.57c-0.714-0.571-2.101-0.7-3.089-0.286
					c-0.991,0.413-1.213,1.212-0.499,1.784c0.717,0.572,2.101,0.701,3.092,0.287C104.505,165.941,104.728,165.144,104.011,164.57"/>
			</g>
		</g>
		<g opacity="0.4" clip-path="url(#SVGID_65_)">
			<g>
				<defs>
					<rect id="SVGID_70_" x="104.281" y="168.773" width="4.428" height="2.556"/>
				</defs>
				<clipPath id="SVGID_71_">
					<use xlink:href="#SVGID_70_"  overflow="visible"/>
				</clipPath>
				<path clip-path="url(#SVGID_71_)" fill="#6EE8FC" d="M108.506,169.518c-0.509-0.642-1.823-0.923-2.933-0.629
					c-1.111,0.295-1.601,1.053-1.091,1.695c0.509,0.64,1.824,0.923,2.934,0.63C108.528,170.917,109.017,170.16,108.506,169.518"/>
			</g>
		</g>
		<g opacity="0.2" clip-path="url(#SVGID_65_)">
			<g>
				<defs>
					<rect id="SVGID_72_" x="106.876" y="173.894" width="4.427" height="2.558"/>
				</defs>
				<clipPath id="SVGID_73_">
					<use xlink:href="#SVGID_72_"  overflow="visible"/>
				</clipPath>
				<path clip-path="url(#SVGID_73_)" fill="#6EE8FC" d="M111.244,174.877c-0.283-0.687-1.476-1.112-2.666-0.948
					c-1.188,0.163-1.924,0.852-1.64,1.538c0.283,0.687,1.475,1.111,2.665,0.948C110.792,176.252,111.527,175.563,111.244,174.877"/>
			</g>
		</g>
		<g opacity="0.1" clip-path="url(#SVGID_65_)">
			<g>
				<defs>
					<rect id="SVGID_74_" x="107.692" y="179.209" width="4.427" height="2.556"/>
				</defs>
				<clipPath id="SVGID_75_">
					<use xlink:href="#SVGID_74_"  overflow="visible"/>
				</clipPath>
				<path clip-path="url(#SVGID_75_)" fill="#6EE8FC" d="M111.894,181.049c0.536-0.635,0.08-1.399-1.017-1.709
					c-1.1-0.309-2.425-0.046-2.96,0.587c-0.538,0.635-0.082,1.4,1.015,1.709C110.032,181.946,111.357,181.682,111.894,181.049"/>
			</g>
		</g>
	</g>
	<g clip-path="url(#SVGID_2_)">
		<defs>
			<path id="SVGID_76_" d="M26.221,138.858c-2.299,1.327-4.3,2.759-6.084,4.251h-9.295v17.186
				c0.002,7.758,5.127,15.518,15.381,21.436c20.504,11.837,53.751,11.838,74.255,0c10.266-5.928,15.387-13.696,15.375-21.463
				v-17.159h-9.293c-1.784-1.492-3.786-2.924-6.082-4.251c-10.253-5.918-23.691-8.878-37.129-8.878
				C49.911,129.98,36.473,132.94,26.221,138.858"/>
		</defs>
		<clipPath id="SVGID_77_">
			<use xlink:href="#SVGID_76_"  overflow="visible"/>
		</clipPath>
		
			<linearGradient id="SVGID_78_" gradientUnits="userSpaceOnUse" x1="134.3516" y1="390.4209" x2="136.1304" y2="390.4209" gradientTransform="matrix(59.0441 0 0 -59.0441 -7921.814 23213.8008)">
			<stop  offset="0" style="stop-color:#A31FA9"/>
			<stop  offset="0.0665" style="stop-color:#8B17A0"/>
			<stop  offset="0.1495" style="stop-color:#750F98"/>
			<stop  offset="0.2398" style="stop-color:#640A92"/>
			<stop  offset="0.3414" style="stop-color:#5B078F"/>
			<stop  offset="0.4785" style="stop-color:#58068E"/>
			<stop  offset="0.621" style="stop-color:#4E20A2"/>
			<stop  offset="0.9248" style="stop-color:#3363D6"/>
			<stop  offset="1" style="stop-color:#2C75E4"/>
		</linearGradient>
		<rect x="10.842" y="129.98" clip-path="url(#SVGID_77_)" fill="url(#SVGID_78_)" width="105.023" height="63.589"/>
	</g>
	<g clip-path="url(#SVGID_2_)">
		<defs>
			<rect id="SVGID_79_" x="0.4" width="622.2" height="498.999"/>
		</defs>
		<clipPath id="SVGID_80_">
			<use xlink:href="#SVGID_79_"  overflow="visible"/>
		</clipPath>
		<path clip-path="url(#SVGID_80_)" fill="#D4088C" d="M11.325,159.849v-16.741h-0.482v17.186c0,6.947,4.141,13.88,12.358,19.507
			C15.294,173.949,11.325,166.903,11.325,159.849"/>
		<path clip-path="url(#SVGID_80_)" fill="#6EE8FC" d="M115.026,143.108v16.607c0.012,7.768-5.112,15.537-15.377,21.465
			c-20.502,11.837-53.749,11.837-74.255-0.002c-1.042-0.603-1.997-1.236-2.933-1.873c1.168,0.836,2.415,1.649,3.761,2.426
			c20.505,11.838,53.751,11.839,74.255,0c10.266-5.926,15.39-13.697,15.377-21.463v-17.16H115.026z"/>
	</g>
	<g clip-path="url(#SVGID_2_)">
		<defs>
			<path id="SVGID_81_" d="M26.221,121.672c-20.505,11.838-20.505,31.032,0.002,42.873c20.504,11.839,53.751,11.839,74.255,0.001
				c20.506-11.84,20.504-31.036,0-42.874c-10.253-5.918-23.691-8.878-37.129-8.878C49.911,112.794,36.473,115.754,26.221,121.672"/>
		</defs>
		<clipPath id="SVGID_82_">
			<use xlink:href="#SVGID_81_"  overflow="visible"/>
		</clipPath>
		
			<linearGradient id="SVGID_83_" gradientUnits="userSpaceOnUse" x1="133.9238" y1="389.418" x2="135.7025" y2="389.418" gradientTransform="matrix(41.7515 24.1059 41.7515 -24.1059 -21825.4063 6281.3511)">
			<stop  offset="0" style="stop-color:#8D139B"/>
			<stop  offset="0.1652" style="stop-color:#851CA1"/>
			<stop  offset="0.4291" style="stop-color:#6E33B2"/>
			<stop  offset="0.7568" style="stop-color:#4958CD"/>
			<stop  offset="1" style="stop-color:#2979E4"/>
		</linearGradient>
		<polygon clip-path="url(#SVGID_82_)" fill="url(#SVGID_83_)" points="63.35,79.518 176.053,144.589 63.35,209.66 -49.353,144.589 
					"/>
	</g>
	<g clip-path="url(#SVGID_2_)">
		<defs>
			<rect id="SVGID_84_" x="0.4" width="622.2" height="498.999"/>
		</defs>
		<clipPath id="SVGID_85_">
			<use xlink:href="#SVGID_84_"  overflow="visible"/>
		</clipPath>
		<path clip-path="url(#SVGID_85_)" fill="#D4088C" d="M27.639,121.986c10.415-6.014,24.021-9.05,37.671-9.138
			c-14.084-0.304-28.337,2.616-39.09,8.825c-15.975,9.222-19.645,23.08-10.525,34.094C7.844,144.497,11.819,131.119,27.639,121.986"
			/>
		<path clip-path="url(#SVGID_85_)" fill="#6EE8FC" d="M100.477,121.672c-5.448-3.144-11.808-5.428-18.575-6.902
			c6.079,1.479,11.781,3.63,16.732,6.488c20.507,11.84,20.507,31.034,0.001,42.873c-15.057,8.694-36.973,10.976-55.681,6.901
			c19.094,4.644,41.969,2.493,57.522-6.488C120.984,152.706,120.982,133.512,100.477,121.672"/>
		<path clip-path="url(#SVGID_85_)" fill="#6DE0F6" d="M86.823,156.807c-13.104,7.566-34.351,7.566-47.455,0
			c-13.104-7.566-13.104-19.832-0.001-27.398c13.106-7.565,34.351-7.565,47.457,0.002C99.927,136.976,99.927,149.243,86.823,156.807
			"/>
		<path clip-path="url(#SVGID_85_)" fill="#18D0F7" d="M39.367,139.792c13.104-7.566,34.35-7.566,47.455,0
			c4.242,2.45,7.087,5.393,8.583,8.509c3.127-6.51,0.282-13.775-8.583-18.892c-13.104-7.566-34.35-7.566-47.455,0
			c-8.862,5.117-11.708,12.38-8.583,18.89C32.282,145.186,35.127,142.241,39.367,139.792"/>
		<path clip-path="url(#SVGID_85_)" fill="#25BFEC" d="M39.367,136.126c13.104-7.566,34.35-7.566,47.455,0
			c5.067,2.925,8.151,6.555,9.3,10.34c1.823-6.006-1.261-12.416-9.3-17.057c-13.104-7.566-34.35-7.566-47.455,0
			c-8.038,4.641-11.121,11.048-9.298,17.057C31.218,142.679,34.301,139.051,39.367,136.126"/>
		<path clip-path="url(#SVGID_85_)" fill="#267FE5" d="M39.367,132.859c13.104-7.565,34.35-7.565,47.455,0
			c5.791,3.344,9.014,7.607,9.686,11.976c0.849-5.517-2.373-11.202-9.686-15.426c-13.104-7.565-34.35-7.565-47.455,0
			c-7.312,4.222-10.532,9.907-9.684,15.424C30.355,140.465,33.578,136.203,39.367,132.859"/>
		<path clip-path="url(#SVGID_85_)" fill="#6EE8FC" d="M90.52,119.696c-1.059-0.375-2.445-0.185-3.099,0.426
			c-0.65,0.611-0.319,1.412,0.738,1.789c1.059,0.375,2.444,0.185,3.097-0.426C91.908,120.874,91.578,120.072,90.52,119.696"/>
		<g opacity="0.8" clip-path="url(#SVGID_85_)">
			<g>
				<defs>
					<rect id="SVGID_86_" x="94.212" y="122.951" width="4.427" height="2.556"/>
				</defs>
				<clipPath id="SVGID_87_">
					<use xlink:href="#SVGID_86_"  overflow="visible"/>
				</clipPath>
				<path clip-path="url(#SVGID_87_)" fill="#6EE8FC" d="M97.932,123.292c-0.896-0.48-2.296-0.45-3.128,0.068
					c-0.831,0.518-0.779,1.325,0.117,1.805c0.895,0.48,2.296,0.45,3.126-0.066C98.88,124.582,98.826,123.772,97.932,123.292"/>
			</g>
		</g>
		<g opacity="0.6" clip-path="url(#SVGID_85_)">
			<g>
				<defs>
					<rect id="SVGID_88_" x="100.005" y="127.109" width="4.426" height="2.556"/>
				</defs>
				<clipPath id="SVGID_89_">
					<use xlink:href="#SVGID_88_"  overflow="visible"/>
				</clipPath>
				<path clip-path="url(#SVGID_89_)" fill="#6EE8FC" d="M104.011,127.64c-0.714-0.573-2.101-0.701-3.089-0.287
					c-0.991,0.413-1.213,1.213-0.499,1.784c0.717,0.572,2.101,0.701,3.092,0.287C104.505,129.011,104.728,128.21,104.011,127.64"/>
			</g>
		</g>
		<g opacity="0.4" clip-path="url(#SVGID_85_)">
			<g>
				<defs>
					<rect id="SVGID_90_" x="104.281" y="131.84" width="4.428" height="2.558"/>
				</defs>
				<clipPath id="SVGID_91_">
					<use xlink:href="#SVGID_90_"  overflow="visible"/>
				</clipPath>
				<path clip-path="url(#SVGID_91_)" fill="#6EE8FC" d="M108.506,132.586c-0.509-0.642-1.823-0.922-2.933-0.63
					c-1.111,0.295-1.601,1.054-1.091,1.695c0.509,0.64,1.824,0.923,2.934,0.629C108.528,133.986,109.017,133.227,108.506,132.586"/>
			</g>
		</g>
		<g opacity="0.2" clip-path="url(#SVGID_85_)">
			<g>
				<defs>
					<rect id="SVGID_92_" x="106.876" y="136.962" width="4.427" height="2.556"/>
				</defs>
				<clipPath id="SVGID_93_">
					<use xlink:href="#SVGID_92_"  overflow="visible"/>
				</clipPath>
				<path clip-path="url(#SVGID_93_)" fill="#6EE8FC" d="M111.244,137.944c-0.283-0.686-1.476-1.111-2.666-0.947
					c-1.188,0.163-1.924,0.852-1.64,1.54c0.283,0.685,1.475,1.11,2.665,0.947C110.792,139.32,111.527,138.631,111.244,137.944"/>
			</g>
		</g>
		<g opacity="0.1" clip-path="url(#SVGID_85_)">
			<g>
				<defs>
					<rect id="SVGID_94_" x="107.692" y="142.279" width="4.427" height="2.556"/>
				</defs>
				<clipPath id="SVGID_95_">
					<use xlink:href="#SVGID_94_"  overflow="visible"/>
				</clipPath>
				<path clip-path="url(#SVGID_95_)" fill="#6EE8FC" d="M111.894,144.116c0.536-0.633,0.08-1.399-1.017-1.709
					c-1.1-0.309-2.425-0.046-2.96,0.589c-0.538,0.633-0.082,1.398,1.015,1.709C110.032,145.013,111.357,144.75,111.894,144.116"/>
			</g>
		</g>
		<g opacity="0.5" clip-path="url(#SVGID_85_)">
			<g>
				<defs>
					<rect id="SVGID_96_" x="10.818" y="112.801" width="105.038" height="60.623"/>
				</defs>
				<clipPath id="SVGID_97_">
					<use xlink:href="#SVGID_96_"  overflow="visible"/>
				</clipPath>
				<path clip-path="url(#SVGID_97_)" fill="#6EE8FC" d="M115.856,121.375l-16.258-0.185c-19.776-10.909-50.663-11.181-70.985-0.809
					l-17.795-0.203v22.101h0.059c-0.378,8.033,4.727,16.134,15.345,22.266c20.504,11.839,53.751,11.839,74.257,0
					c10.618-6.131,15.722-14.233,15.343-22.266h0.034V121.375z"/>
			</g>
		</g>
	</g>
	<g clip-path="url(#SVGID_2_)">
		<defs>
			<path id="SVGID_98_" d="M26.221,101.928c-2.299,1.326-4.3,2.756-6.084,4.248h-9.295v17.186
				c0.002,7.76,5.127,15.518,15.381,21.437c20.504,11.839,53.751,11.841,74.255,0c10.266-5.926,15.387-13.695,15.375-21.464v-17.159
				h-9.293c-1.784-1.492-3.786-2.92-6.082-4.247c-10.253-5.921-23.693-8.88-37.13-8.88C49.909,93.049,36.473,96.008,26.221,101.928"
				/>
		</defs>
		<clipPath id="SVGID_99_">
			<use xlink:href="#SVGID_98_"  overflow="visible"/>
		</clipPath>
		
			<linearGradient id="SVGID_100_" gradientUnits="userSpaceOnUse" x1="134.3516" y1="390.6943" x2="136.1304" y2="390.6943" gradientTransform="matrix(59.0441 0 0 -59.0441 -7921.814 23193.0508)">
			<stop  offset="0" style="stop-color:#A31FA9"/>
			<stop  offset="0.0665" style="stop-color:#8B17A0"/>
			<stop  offset="0.1495" style="stop-color:#750F98"/>
			<stop  offset="0.2398" style="stop-color:#640A92"/>
			<stop  offset="0.3414" style="stop-color:#5B078F"/>
			<stop  offset="0.4785" style="stop-color:#58068E"/>
			<stop  offset="0.621" style="stop-color:#4E20A2"/>
			<stop  offset="0.9248" style="stop-color:#3363D6"/>
			<stop  offset="1" style="stop-color:#2C75E4"/>
		</linearGradient>
		<rect x="10.842" y="93.049" clip-path="url(#SVGID_99_)" fill="url(#SVGID_100_)" width="105.023" height="63.591"/>
	</g>
	<g clip-path="url(#SVGID_2_)">
		<defs>
			<rect id="SVGID_101_" x="0.4" width="622.2" height="498.999"/>
		</defs>
		<clipPath id="SVGID_102_">
			<use xlink:href="#SVGID_101_"  overflow="visible"/>
		</clipPath>
		<path clip-path="url(#SVGID_102_)" fill="#D4088C" d="M11.325,122.917v-16.741h-0.482v17.185c0,6.947,4.141,13.88,12.358,19.506
			C15.294,137.018,11.325,129.97,11.325,122.917"/>
		<path clip-path="url(#SVGID_102_)" fill="#6EE8FC" d="M115.026,106.176v16.608c0.012,7.767-5.112,15.537-15.377,21.463
			c-20.502,11.837-53.749,11.837-74.255,0c-1.042-0.603-1.997-1.236-2.933-1.875c1.168,0.836,2.415,1.649,3.761,2.426
			c20.505,11.839,53.751,11.839,74.255,0c10.266-5.926,15.39-13.695,15.377-21.463v-17.16H115.026z"/>
	</g>
	<g clip-path="url(#SVGID_2_)">
		<defs>
			<path id="SVGID_103_" d="M26.221,84.74c-20.505,11.839-20.505,31.035,0.002,42.873c20.504,11.837,53.751,11.837,74.255,0
				c20.506-11.838,20.504-31.032,0-42.872c-10.255-5.921-23.691-8.88-37.13-8.88C49.911,75.861,36.473,78.822,26.221,84.74"/>
		</defs>
		<clipPath id="SVGID_104_">
			<use xlink:href="#SVGID_103_"  overflow="visible"/>
		</clipPath>
		
			<linearGradient id="SVGID_105_" gradientUnits="userSpaceOnUse" x1="133.5884" y1="389.7539" x2="135.367" y2="389.7539" gradientTransform="matrix(41.7514 24.1059 41.7514 -24.1059 -21825.3574 6260.5732)">
			<stop  offset="0" style="stop-color:#8D139B"/>
			<stop  offset="0.1652" style="stop-color:#851CA1"/>
			<stop  offset="0.4291" style="stop-color:#6E33B2"/>
			<stop  offset="0.7568" style="stop-color:#4958CD"/>
			<stop  offset="1" style="stop-color:#2979E4"/>
		</linearGradient>
		<polygon clip-path="url(#SVGID_104_)" fill="url(#SVGID_105_)" points="63.35,42.585 176.053,107.656 63.35,172.727 
			-49.353,107.656 		"/>
	</g>
	<g clip-path="url(#SVGID_2_)">
		<defs>
			<rect id="SVGID_106_" x="0.4" width="622.2" height="498.999"/>
		</defs>
		<clipPath id="SVGID_107_">
			<use xlink:href="#SVGID_106_"  overflow="visible"/>
		</clipPath>
		<path clip-path="url(#SVGID_107_)" fill="#D4088C" d="M27.639,85.054c10.415-6.013,24.021-9.049,37.671-9.138
			c-14.084-0.304-28.337,2.616-39.09,8.823c-15.975,9.224-19.645,23.082-10.525,34.096C7.844,107.563,11.819,94.188,27.639,85.054"
			/>
		<path clip-path="url(#SVGID_107_)" fill="#6EE8FC" d="M100.477,84.741c-5.448-3.146-11.808-5.428-18.575-6.903
			c6.079,1.478,11.781,3.63,16.732,6.488c20.507,11.84,20.507,31.034,0.001,42.874c-15.057,8.693-36.973,10.976-55.681,6.901
			c19.094,4.644,41.969,2.492,57.522-6.488C120.984,115.774,120.982,96.581,100.477,84.741"/>
		<path clip-path="url(#SVGID_107_)" fill="#6DE0F6" d="M86.823,119.875c-13.104,7.567-34.351,7.567-47.455,0
			c-13.104-7.565-13.104-19.832-0.001-27.397c13.106-7.566,34.351-7.566,47.457,0C99.927,100.045,99.927,112.31,86.823,119.875"/>
		<path clip-path="url(#SVGID_107_)" fill="#18D0F7" d="M39.367,102.861c13.104-7.566,34.35-7.566,47.455,0
			c4.242,2.45,7.087,5.393,8.583,8.509c3.127-6.51,0.282-13.775-8.583-18.892c-13.104-7.565-34.35-7.565-47.455,0
			c-8.862,5.117-11.708,12.38-8.583,18.89C32.282,108.254,35.127,105.308,39.367,102.861"/>
		<path clip-path="url(#SVGID_107_)" fill="#25BFEC" d="M39.367,99.194c13.104-7.566,34.35-7.566,47.455,0
			c5.067,2.926,8.151,6.554,9.3,10.341c1.823-6.009-1.261-12.417-9.3-17.057c-13.104-7.565-34.35-7.565-47.455,0
			c-8.038,4.64-11.121,11.048-9.298,17.057C31.218,105.748,34.301,102.118,39.367,99.194"/>
		<path clip-path="url(#SVGID_107_)" fill="#267FE5" d="M39.367,95.928c13.104-7.566,34.35-7.566,47.455,0
			c5.791,3.344,9.014,7.607,9.686,11.976c0.849-5.517-2.373-11.204-9.686-15.426c-13.104-7.566-34.35-7.566-47.455,0
			c-7.312,4.222-10.532,9.907-9.684,15.424C30.355,103.533,33.578,99.27,39.367,95.928"/>
		<path clip-path="url(#SVGID_107_)" fill="#6EE8FC" d="M90.52,82.765c-1.059-0.377-2.445-0.185-3.099,0.425
			c-0.65,0.611-0.319,1.412,0.738,1.789c1.059,0.375,2.444,0.185,3.097-0.426C91.908,83.942,91.578,83.141,90.52,82.765"/>
		<g opacity="0.8" clip-path="url(#SVGID_107_)">
			<g>
				<defs>
					<rect id="SVGID_108_" x="94.212" y="86.02" width="4.427" height="2.556"/>
				</defs>
				<clipPath id="SVGID_109_">
					<use xlink:href="#SVGID_108_"  overflow="visible"/>
				</clipPath>
				<path clip-path="url(#SVGID_109_)" fill="#6EE8FC" d="M97.932,86.361c-0.896-0.479-2.296-0.45-3.128,0.067
					c-0.831,0.518-0.779,1.325,0.117,1.806c0.895,0.48,2.296,0.45,3.126-0.066C98.88,87.651,98.826,86.841,97.932,86.361"/>
			</g>
		</g>
		<g opacity="0.6" clip-path="url(#SVGID_107_)">
			<g>
				<defs>
					<rect id="SVGID_110_" x="100.005" y="90.178" width="4.426" height="2.556"/>
				</defs>
				<clipPath id="SVGID_111_">
					<use xlink:href="#SVGID_110_"  overflow="visible"/>
				</clipPath>
				<path clip-path="url(#SVGID_111_)" fill="#6EE8FC" d="M104.011,90.708c-0.714-0.572-2.101-0.701-3.089-0.286
					c-0.991,0.413-1.213,1.212-0.499,1.784c0.717,0.572,2.101,0.699,3.092,0.287C104.505,92.079,104.728,91.279,104.011,90.708"/>
			</g>
		</g>
		<g opacity="0.4" clip-path="url(#SVGID_107_)">
			<g>
				<defs>
					<rect id="SVGID_112_" x="104.281" y="94.909" width="4.428" height="2.556"/>
				</defs>
				<clipPath id="SVGID_113_">
					<use xlink:href="#SVGID_112_"  overflow="visible"/>
				</clipPath>
				<path clip-path="url(#SVGID_113_)" fill="#6EE8FC" d="M108.506,95.656c-0.509-0.643-1.823-0.923-2.933-0.629
					c-1.111,0.294-1.601,1.052-1.091,1.694c0.509,0.641,1.824,0.923,2.934,0.627C108.528,97.055,109.017,96.296,108.506,95.656"/>
			</g>
		</g>
		<g opacity="0.2" clip-path="url(#SVGID_107_)">
			<g>
				<defs>
					<rect id="SVGID_114_" x="106.876" y="100.031" width="4.427" height="2.556"/>
				</defs>
				<clipPath id="SVGID_115_">
					<use xlink:href="#SVGID_114_"  overflow="visible"/>
				</clipPath>
				<path clip-path="url(#SVGID_115_)" fill="#6EE8FC" d="M111.244,101.014c-0.283-0.687-1.476-1.112-2.666-0.949
					c-1.188,0.164-1.924,0.852-1.64,1.541c0.283,0.684,1.475,1.109,2.665,0.945C110.792,102.389,111.527,101.7,111.244,101.014"/>
			</g>
		</g>
		<g opacity="0.1" clip-path="url(#SVGID_107_)">
			<g>
				<defs>
					<rect id="SVGID_116_" x="107.692" y="105.347" width="4.427" height="2.556"/>
				</defs>
				<clipPath id="SVGID_117_">
					<use xlink:href="#SVGID_116_"  overflow="visible"/>
				</clipPath>
				<path clip-path="url(#SVGID_117_)" fill="#6EE8FC" d="M111.894,107.185c0.536-0.633,0.08-1.399-1.017-1.709
					c-1.1-0.309-2.425-0.046-2.96,0.588c-0.538,0.633-0.082,1.398,1.015,1.708C110.032,108.082,111.357,107.819,111.894,107.185"/>
			</g>
		</g>
		<path clip-path="url(#SVGID_107_)" fill="#6DE0F6" d="M67.397,144.833c0,1.822-1.476,3.297-3.297,3.297
			c-1.821,0-3.297-1.475-3.297-3.297c0-1.821,1.477-3.297,3.297-3.297C65.921,141.536,67.397,143.013,67.397,144.833"/>
		<path clip-path="url(#SVGID_107_)" fill="#267FE5" d="M64.1,146.896c-1.609,0-2.947-1.154-3.236-2.68
			c-0.038,0.201-0.063,0.407-0.063,0.619c0,1.821,1.479,3.297,3.299,3.297c1.821,0,3.297-1.476,3.297-3.297
			c0-0.212-0.025-0.418-0.063-0.619C67.044,145.741,65.709,146.896,64.1,146.896"/>
		<path clip-path="url(#SVGID_107_)" fill="#6DE0F6" d="M67.397,181.765c0,1.822-1.476,3.298-3.297,3.298
			c-1.821,0-3.297-1.477-3.297-3.298c0-1.821,1.477-3.297,3.297-3.297C65.921,178.468,67.397,179.944,67.397,181.765"/>
		<path clip-path="url(#SVGID_107_)" fill="#267FE5" d="M64.1,183.828c-1.609,0-2.947-1.155-3.236-2.679
			c-0.038,0.2-0.063,0.406-0.063,0.618c0,1.821,1.479,3.297,3.299,3.297c1.821,0,3.297-1.477,3.297-3.297
			c0-0.212-0.025-0.418-0.063-0.618C67.044,182.672,65.709,183.828,64.1,183.828"/>
		<path clip-path="url(#SVGID_107_)" fill="#6DE0F6" d="M67.397,218.697c0,1.822-1.476,3.297-3.297,3.297
			c-1.821,0-3.297-1.476-3.297-3.297c0-1.821,1.477-3.297,3.297-3.297C65.921,215.4,67.397,216.876,67.397,218.697"/>
		<path clip-path="url(#SVGID_107_)" fill="#267FE5" d="M64.1,220.758c-1.609,0-2.947-1.154-3.236-2.678
			c-0.038,0.2-0.063,0.406-0.063,0.618c0,1.821,1.479,3.297,3.299,3.297c1.821,0,3.297-1.476,3.297-3.297
			c0-0.212-0.025-0.417-0.063-0.618C67.044,219.604,65.709,220.758,64.1,220.758"/>
		<path clip-path="url(#SVGID_107_)" fill="#6DE0F6" d="M67.397,255.628c0,1.822-1.476,3.298-3.297,3.298
			c-1.821,0-3.297-1.476-3.297-3.298c0-1.818,1.477-3.297,3.297-3.297C65.921,252.331,67.397,253.81,67.397,255.628"/>
		<path clip-path="url(#SVGID_107_)" fill="#267FE5" d="M64.1,257.689c-1.609,0-2.947-1.151-3.236-2.68
			c-0.038,0.201-0.063,0.409-0.063,0.618c0,1.822,1.479,3.298,3.299,3.298c1.821,0,3.297-1.476,3.297-3.298
			c0-0.209-0.025-0.417-0.063-0.618C67.044,256.538,65.709,257.689,64.1,257.689"/>
		<path clip-path="url(#SVGID_107_)" fill="#6DE0F6" d="M67.397,292.56c0,1.822-1.476,3.299-3.297,3.299
			c-1.821,0-3.297-1.477-3.297-3.299c0-1.819,1.477-3.296,3.297-3.296C65.921,289.264,67.397,290.74,67.397,292.56"/>
		<path clip-path="url(#SVGID_107_)" fill="#267FE5" d="M64.1,294.622c-1.609,0-2.947-1.153-3.236-2.681
			c-0.038,0.202-0.063,0.408-0.063,0.618c0,1.822,1.479,3.299,3.299,3.299c1.821,0,3.297-1.477,3.297-3.299
			c0-0.21-0.025-0.416-0.063-0.618C67.044,293.469,65.709,294.622,64.1,294.622"/>
		<g opacity="0.3" clip-path="url(#SVGID_107_)">
			<g>
				<defs>
					<rect id="SVGID_118_" x="252.83" y="263.075" width="369.77" height="214.518"/>
				</defs>
				<clipPath id="SVGID_119_">
					<use xlink:href="#SVGID_118_"  overflow="visible"/>
				</clipPath>
				<path clip-path="url(#SVGID_119_)" fill="#6EE8FC" d="M345.885,477.593c-2.978,0-5.956-0.67-8.274-2.01l-83.586-48.34
					c-1.144-0.659-1.535-2.12-0.874-3.262c0.658-1.143,2.127-1.533,3.262-0.871l83.585,48.338c3.188,1.841,8.582,1.843,11.771-0.002
					l264.321-151.54c1.081-0.625,1.732-1.381,1.732-2.016c-0.002-0.635-0.651-1.39-1.737-2.019l-83.587-48.338
					c-1.145-0.66-1.534-2.123-0.872-3.262c0.66-1.145,2.124-1.537,3.262-0.874l83.586,48.338c2.619,1.515,4.126,3.755,4.126,6.154
					s-1.506,4.643-4.126,6.156L354.15,475.587C351.837,476.924,348.861,477.593,345.885,477.593"/>
			</g>
		</g>
		<path clip-path="url(#SVGID_107_)" fill="#6EE8FC" d="M345.885,475.676c-2.651,0-5.3-0.584-7.317-1.746l-83.586-48.342
			l0.475-0.823l83.584,48.34c3.776,2.179,9.916,2.179,13.685-0.001l264.316-151.536c1.735-1.004,2.692-2.309,2.692-3.677
			c0-1.365-0.957-2.672-2.694-3.674l-83.585-48.34l0.474-0.823l83.588,48.338c2.044,1.18,3.171,2.777,3.171,4.499
			c0,1.721-1.125,3.32-3.171,4.501L353.198,473.93C351.182,475.094,348.533,475.676,345.885,475.676"/>
		<path clip-path="url(#SVGID_107_)" fill="#FFFFFF" d="M544.827,271.903c-0.592,1.025-1.903,1.376-2.928,0.784
			c-1.028-0.595-1.378-1.905-0.785-2.931c0.592-1.024,1.903-1.374,2.932-0.781C545.07,269.569,545.42,270.879,544.827,271.903"/>
		<path clip-path="url(#SVGID_107_)" fill="#FFFFFF" d="M555.961,278.342c-0.594,1.025-1.903,1.376-2.929,0.784
			c-1.026-0.593-1.377-1.904-0.785-2.931c0.595-1.024,1.905-1.374,2.932-0.779C556.204,276.008,556.555,277.317,555.961,278.342"/>
		<path clip-path="url(#SVGID_107_)" fill="#FFFFFF" d="M567.094,284.78c-0.592,1.025-1.903,1.376-2.928,0.784
			c-1.027-0.593-1.378-1.904-0.784-2.931c0.593-1.024,1.904-1.372,2.931-0.779C567.337,282.446,567.688,283.756,567.094,284.78"/>
		<path clip-path="url(#SVGID_107_)" fill="#FFFFFF" d="M578.228,291.219c-0.595,1.025-1.904,1.376-2.929,0.784
			c-1.026-0.593-1.376-1.904-0.783-2.929c0.592-1.026,1.903-1.374,2.93-0.781C578.471,288.885,578.819,290.194,578.228,291.219"/>
		<path clip-path="url(#SVGID_107_)" fill="#FFFFFF" d="M589.362,297.657c-0.593,1.027-1.904,1.376-2.929,0.784
			c-1.026-0.593-1.377-1.904-0.785-2.929c0.594-1.024,1.905-1.374,2.932-0.781C589.605,295.323,589.954,296.633,589.362,297.657"/>
		<path clip-path="url(#SVGID_107_)" fill="#FFFFFF" d="M600.495,304.098c-0.592,1.025-1.903,1.376-2.929,0.782
			c-1.026-0.593-1.377-1.904-0.784-2.929c0.594-1.024,1.905-1.374,2.932-0.781C600.738,301.762,601.089,303.071,600.495,304.098"/>
		<path clip-path="url(#SVGID_107_)" fill="#FFFFFF" d="M611.63,310.536c-0.596,1.025-1.905,1.376-2.93,0.782
			c-1.026-0.593-1.378-1.904-0.783-2.929c0.592-1.024,1.903-1.374,2.93-0.781C611.871,308.202,612.221,309.512,611.63,310.536"/>
		<path clip-path="url(#SVGID_107_)" fill="#FFFFFF" d="M620.042,318.942c-0.568-0.184-1.015-0.551-1.371-0.809
			c-0.362-0.273-0.607-0.417-0.672-0.645c-0.109-0.399,0.118-1.584,0.901-2.445c0.422-0.417,0.995-0.629,1.612-0.463
			c0.616,0.133,1.264,0.713,1.568,1.6c0.293,0.909,0.059,1.855-0.403,2.351C621.207,319.036,620.592,319.129,620.042,318.942"/>
		<path clip-path="url(#SVGID_107_)" fill="#FFFFFF" d="M609.765,326.286c-0.589-1.026-0.236-2.334,0.792-2.927
			c1.026-0.589,2.338-0.23,2.927,0.794c0.589,1.028,0.234,2.338-0.794,2.927S610.352,327.314,609.765,326.286"/>
		<path clip-path="url(#SVGID_107_)" fill="#FFFFFF" d="M598.607,332.683c-0.589-1.026-0.236-2.334,0.79-2.925
			c1.028-0.589,2.34-0.232,2.929,0.794s0.234,2.336-0.794,2.925S599.196,333.711,598.607,332.683"/>
		<path clip-path="url(#SVGID_107_)" fill="#FFFFFF" d="M587.446,339.08c-0.587-1.027-0.232-2.335,0.794-2.925
			c1.028-0.589,2.339-0.233,2.928,0.793s0.233,2.336-0.793,2.925C589.347,340.462,588.037,340.107,587.446,339.08"/>
		<path clip-path="url(#SVGID_107_)" fill="#FFFFFF" d="M576.29,345.479c-0.588-1.028-0.234-2.336,0.792-2.927
			c1.027-0.589,2.34-0.232,2.929,0.794s0.232,2.336-0.794,2.926C578.188,346.86,576.878,346.505,576.29,345.479"/>
		<path clip-path="url(#SVGID_107_)" fill="#FFFFFF" d="M565.133,351.875c-0.589-1.028-0.234-2.336,0.792-2.927
			c1.026-0.589,2.338-0.232,2.929,0.794c0.589,1.026,0.232,2.338-0.794,2.927C567.031,353.258,565.722,352.901,565.133,351.875"/>
		<path clip-path="url(#SVGID_107_)" fill="#FFFFFF" d="M553.974,358.271c-0.587-1.028-0.234-2.336,0.794-2.927
			c1.026-0.588,2.338-0.23,2.927,0.794c0.589,1.026,0.234,2.338-0.792,2.927C555.872,359.654,554.563,359.298,553.974,358.271"/>
		<path clip-path="url(#SVGID_107_)" fill="#FFFFFF" d="M542.818,364.669c-0.589-1.028-0.236-2.337,0.792-2.927
			c1.026-0.589,2.338-0.231,2.927,0.794c0.588,1.027,0.234,2.337-0.794,2.926S543.405,365.695,542.818,364.669"/>
		<path clip-path="url(#SVGID_107_)" fill="#FFFFFF" d="M531.66,371.065c-0.588-1.026-0.235-2.336,0.791-2.927
			c1.028-0.589,2.339-0.23,2.928,0.794c0.589,1.028,0.234,2.338-0.794,2.927C533.558,372.448,532.249,372.092,531.66,371.065"/>
		<path clip-path="url(#SVGID_107_)" fill="#FFFFFF" d="M520.501,377.462c-0.589-1.026-0.234-2.336,0.792-2.927
			c1.028-0.589,2.34-0.23,2.929,0.794c0.589,1.028,0.232,2.338-0.794,2.927C522.399,378.845,521.09,378.488,520.501,377.462"/>
		<path clip-path="url(#SVGID_107_)" fill="#FFFFFF" d="M509.344,383.859c-0.589-1.027-0.234-2.337,0.792-2.927
			c1.026-0.589,2.34-0.231,2.929,0.794c0.589,1.027,0.232,2.337-0.794,2.926C511.242,385.241,509.931,384.887,509.344,383.859"/>
		<path clip-path="url(#SVGID_107_)" fill="#FFFFFF" d="M498.187,390.256c-0.589-1.026-0.234-2.334,0.792-2.927
			c1.026-0.587,2.338-0.23,2.927,0.794c0.59,1.028,0.234,2.338-0.792,2.927C500.085,391.639,498.773,391.284,498.187,390.256"/>
		<path clip-path="url(#SVGID_107_)" fill="#FFFFFF" d="M487.029,396.652c-0.589-1.026-0.236-2.334,0.792-2.925
			c1.026-0.589,2.337-0.232,2.926,0.794s0.235,2.336-0.792,2.925C488.926,398.035,487.616,397.681,487.029,396.652"/>
		<path clip-path="url(#SVGID_107_)" fill="#FFFFFF" d="M475.871,403.051c-0.589-1.028-0.236-2.336,0.791-2.927
			c1.027-0.588,2.339-0.232,2.928,0.794s0.234,2.336-0.794,2.925S476.458,404.077,475.871,403.051"/>
		<path clip-path="url(#SVGID_107_)" fill="#FFFFFF" d="M464.712,409.448c-0.589-1.028-0.234-2.337,0.792-2.927
			c1.028-0.589,2.34-0.233,2.929,0.794c0.589,1.026,0.234,2.337-0.794,2.926S465.301,410.475,464.712,409.448"/>
		<path clip-path="url(#SVGID_107_)" fill="#FFFFFF" d="M453.553,415.845c-0.587-1.028-0.232-2.336,0.794-2.927
			c1.026-0.589,2.34-0.23,2.929,0.794c0.589,1.026,0.232,2.338-0.794,2.927C455.453,417.228,454.142,416.871,453.553,415.845"/>
		<path clip-path="url(#SVGID_107_)" fill="#FFFFFF" d="M442.397,422.241c-0.589-1.028-0.234-2.336,0.792-2.927
			c1.026-0.589,2.339-0.23,2.928,0.794c0.589,1.026,0.233,2.338-0.793,2.927C444.296,423.624,442.984,423.268,442.397,422.241"/>
		<path clip-path="url(#SVGID_107_)" fill="#FFFFFF" d="M431.238,428.639c-0.587-1.028-0.234-2.337,0.793-2.927
			c1.027-0.589,2.338-0.231,2.927,0.794c0.591,1.027,0.234,2.337-0.792,2.926C433.137,430.021,431.827,429.665,431.238,428.639"/>
		<path clip-path="url(#SVGID_107_)" fill="#FFFFFF" d="M420.082,435.035c-0.589-1.026-0.236-2.336,0.792-2.927
			c1.026-0.589,2.338-0.23,2.927,0.794c0.589,1.028,0.234,2.338-0.792,2.927C421.979,436.418,420.669,436.062,420.082,435.035"/>
		<path clip-path="url(#SVGID_107_)" fill="#FFFFFF" d="M408.925,441.432c-0.589-1.026-0.236-2.336,0.79-2.927
			c1.028-0.589,2.34-0.23,2.929,0.794c0.589,1.028,0.234,2.338-0.794,2.927S409.512,442.46,408.925,441.432"/>
		<path clip-path="url(#SVGID_107_)" fill="#FFFFFF" d="M397.766,447.829c-0.589-1.027-0.234-2.335,0.792-2.927
			c1.028-0.589,2.34-0.231,2.929,0.795c0.588,1.026,0.232,2.336-0.794,2.925C399.664,449.211,398.354,448.856,397.766,447.829"/>
		<path clip-path="url(#SVGID_107_)" fill="#FFFFFF" d="M386.608,454.226c-0.589-1.026-0.234-2.335,0.792-2.925
			c1.026-0.589,2.339-0.233,2.928,0.794c0.589,1.026,0.233,2.336-0.794,2.925S387.195,455.254,386.608,454.226"/>
		<path clip-path="url(#SVGID_107_)" fill="#FFFFFF" d="M375.45,460.622c-0.589-1.026-0.234-2.334,0.792-2.925
			c1.027-0.589,2.338-0.232,2.929,0.794c0.589,1.026,0.232,2.336-0.794,2.925C377.348,462.005,376.038,461.65,375.45,460.622"/>
		<path clip-path="url(#SVGID_107_)" fill="#FFFFFF" d="M364.291,467.021c-0.587-1.028-0.234-2.336,0.794-2.927
			c1.026-0.588,2.338-0.232,2.927,0.794s0.234,2.338-0.792,2.927C366.189,468.403,364.88,468.047,364.291,467.021"/>
		<path clip-path="url(#SVGID_107_)" fill="#FFFFFF" d="M353.136,473.418c-0.589-1.028-0.236-2.337,0.792-2.927
			c1.026-0.589,2.338-0.231,2.927,0.794c0.589,1.026,0.234,2.337-0.794,2.926S353.723,474.444,353.136,473.418"/>
		<path clip-path="url(#SVGID_107_)" fill="#FFFFFF" d="M340.669,474.355c0.427-1.104,1.493-1.723,2.471-1.551
			c0.977,0.189,1.769,1.181,1.722,2.372c-0.04,1.174-1.178,2.097-2.527,1.84C340.978,476.768,340.239,475.458,340.669,474.355"/>
		<path clip-path="url(#SVGID_107_)" fill="#FFFFFF" d="M329.445,468.103c0.59-1.024,1.901-1.374,2.927-0.781
			c1.026,0.592,1.377,1.901,0.784,2.927c-0.592,1.024-1.903,1.375-2.932,0.783C329.2,470.438,328.853,469.128,329.445,468.103"/>
		<path clip-path="url(#SVGID_107_)" fill="#FFFFFF" d="M318.311,461.662c0.592-1.024,1.903-1.372,2.928-0.779
			c1.026,0.592,1.378,1.901,0.783,2.927c-0.592,1.024-1.903,1.375-2.93,0.783C318.067,464,317.716,462.689,318.311,461.662"/>
		<path clip-path="url(#SVGID_107_)" fill="#FFFFFF" d="M307.176,455.224c0.594-1.024,1.904-1.373,2.929-0.779
			c1.026,0.592,1.375,1.901,0.783,2.927c-0.592,1.024-1.904,1.375-2.93,0.783C306.935,457.561,306.584,456.249,307.176,455.224"/>
		<path clip-path="url(#SVGID_107_)" fill="#FFFFFF" d="M296.043,448.785c0.592-1.024,1.903-1.373,2.927-0.781
			c1.027,0.594,1.376,1.903,0.784,2.929c-0.594,1.024-1.904,1.375-2.931,0.783C295.799,451.122,295.451,449.811,296.043,448.785"/>
		<path clip-path="url(#SVGID_107_)" fill="#FFFFFF" d="M284.91,442.347c0.592-1.024,1.903-1.373,2.928-0.781
			c1.026,0.593,1.376,1.902,0.782,2.929c-0.592,1.024-1.903,1.375-2.929,0.781C284.667,444.684,284.316,443.372,284.91,442.347"/>
		<path clip-path="url(#SVGID_107_)" fill="#FFFFFF" d="M273.775,435.908c0.592-1.026,1.904-1.373,2.929-0.781
			c1.026,0.593,1.375,1.902,0.782,2.927c-0.592,1.026-1.902,1.376-2.929,0.783C273.533,438.245,273.183,436.934,273.775,435.908"/>
		<path clip-path="url(#SVGID_107_)" fill="#FFFFFF" d="M262.642,429.469c0.592-1.025,1.903-1.372,2.928-0.78
			c1.026,0.593,1.376,1.902,0.784,2.927c-0.594,1.024-1.905,1.376-2.931,0.783C262.397,431.807,262.048,430.495,262.642,429.469"/>
		<g opacity="0.6" clip-path="url(#SVGID_107_)">
			<g>
				<defs>
					<rect id="SVGID_120_" x="9.151" y="147.523" width="608.776" height="351.476"/>
				</defs>
				<clipPath id="SVGID_121_">
					<use xlink:href="#SVGID_120_"  overflow="visible"/>
				</clipPath>
				<path clip-path="url(#SVGID_121_)" fill="#0C0F38" d="M204.584,497.212L12.245,386.167c-4.583-2.646-4.008-7.269,1.286-10.327
					l391.077-225.789c5.292-3.058,13.301-3.388,17.887-0.742l192.338,111.046c4.583,2.648,4.01,7.271-1.285,10.325l-391.077,225.79
					C217.176,499.527,209.168,499.859,204.584,497.212"/>
			</g>
		</g>
	</g>
	<g clip-path="url(#SVGID_2_)">
		<defs>
			<path id="SVGID_122_" d="M404.608,119.181L19.688,341.416l-10.535-4.712v14.341l0.009-0.006c0.087,1.601,1.101,3.113,3.084,4.259
				l192.337,111.046c4.584,2.645,12.591,2.314,17.884-0.744l391.079-225.789c2.979-1.718,4.464-3.936,4.375-6.017l0.005,0.002
				v-14.07l-9.801,5.887L422.495,118.44c-2.077-1.2-4.858-1.787-7.771-1.787C411.211,116.653,407.504,117.509,404.608,119.181"/>
		</defs>
		<clipPath id="SVGID_123_">
			<use xlink:href="#SVGID_122_"  overflow="visible"/>
		</clipPath>
		
			<linearGradient id="SVGID_124_" gradientUnits="userSpaceOnUse" x1="136.2051" y1="389.7451" x2="137.9844" y2="389.7451" gradientTransform="matrix(495.5411 0 0 -495.5411 -67608.1172 193427.6563)">
			<stop  offset="0" style="stop-color:#8D139B"/>
			<stop  offset="0.1652" style="stop-color:#851CA1"/>
			<stop  offset="0.4291" style="stop-color:#6E33B2"/>
			<stop  offset="0.7568" style="stop-color:#4958CD"/>
			<stop  offset="1" style="stop-color:#2979E4"/>
		</linearGradient>
		<rect x="9.154" y="116.653" clip-path="url(#SVGID_123_)" fill="url(#SVGID_124_)" width="608.858" height="352.335"/>
	</g>
	<g clip-path="url(#SVGID_2_)">
		<defs>
			<rect id="SVGID_125_" x="0.4" width="622.2" height="498.999"/>
		</defs>
		<clipPath id="SVGID_126_">
			<use xlink:href="#SVGID_125_"  overflow="visible"/>
		</clipPath>
		<path clip-path="url(#SVGID_126_)" fill="#D4088C" d="M19.688,341.414l-10.534-4.709v14.34l0.009-0.006
			c0.087,1.601,1.101,3.113,3.083,4.259l0.409,0.235c-0.563-0.753-0.875-1.567-0.921-2.409l-0.009,0.005v-14.341l10.535,4.71
			l14.869-8.582c-0.684-0.802-1.378-1.594-2.098-2.358L19.688,341.414z"/>
		<path clip-path="url(#SVGID_126_)" fill="#6EE8FC" d="M608.127,225.613l-91.122-52.608c-0.919,0.597-1.841,1.193-2.758,1.792
			l91.396,52.767l9.799-5.889v14.072l-0.003-0.002c0.057,1.312-0.517,2.677-1.692,3.939c2.84-1.702,4.265-3.859,4.178-5.89
			l0.003,0.001v-14.071L608.127,225.613z"/>
	</g>
	<g clip-path="url(#SVGID_2_)">
		<defs>
			<path id="SVGID_127_" d="M404.608,104.99L13.531,330.779c-5.295,3.057-5.869,7.681-1.284,10.327l192.337,111.049
				c4.584,2.646,12.591,2.312,17.884-0.743l391.079-225.79c5.294-3.056,5.87-7.68,1.283-10.326L422.495,104.25
				c-2.077-1.198-4.858-1.787-7.771-1.787C411.211,102.462,407.504,103.32,404.608,104.99"/>
		</defs>
		<clipPath id="SVGID_128_">
			<use xlink:href="#SVGID_127_"  overflow="visible"/>
		</clipPath>
		
			<linearGradient id="SVGID_129_" gradientUnits="userSpaceOnUse" x1="136.2876" y1="389.7041" x2="138.066" y2="389.7041" gradientTransform="matrix(117.4866 67.8329 135.6659 -78.3335 -68672.7891 21500.2422)">
			<stop  offset="0" style="stop-color:#8D139B"/>
			<stop  offset="0.1652" style="stop-color:#851CA1"/>
			<stop  offset="0.4291" style="stop-color:#6E33B2"/>
			<stop  offset="0.7568" style="stop-color:#4958CD"/>
			<stop  offset="1" style="stop-color:#2979E4"/>
		</linearGradient>
		<polygon clip-path="url(#SVGID_128_)" fill="url(#SVGID_129_)" points="313.532,-74.146 924.533,278.625 313.55,631.409 
			-297.453,278.636 		"/>
	</g>
	<g clip-path="url(#SVGID_2_)">
		<defs>
			<rect id="SVGID_130_" x="0.4" width="622.2" height="498.999"/>
		</defs>
		<clipPath id="SVGID_131_">
			<use xlink:href="#SVGID_130_"  overflow="visible"/>
		</clipPath>
		<path clip-path="url(#SVGID_131_)" fill="#D4088C" d="M207.243,452.153L14.906,341.106c-4.583-2.646-4.009-7.269,1.286-10.327
			L407.27,104.992c2.553-1.477,5.74-2.3,8.87-2.478c-3.909-0.265-8.245,0.578-11.531,2.478L13.531,330.779
			c-5.294,3.059-5.869,7.681-1.284,10.327l192.337,111.047c2.371,1.37,5.659,1.925,9.014,1.737
			C211.211,453.727,208.983,453.155,207.243,452.153"/>
		<path clip-path="url(#SVGID_131_)" fill="#6EE8FC" d="M614.833,215.296L422.495,104.25c-2.369-1.369-5.652-1.926-9.004-1.737
			c2.414,0.155,4.677,0.724,6.432,1.737l192.338,111.046c4.585,2.646,4.01,7.271-1.285,10.326l-391.079,225.79
			c-2.557,1.476-5.748,2.301-8.881,2.477c3.892,0.25,8.188-0.593,11.456-2.477l391.077-225.79
			C618.843,222.567,619.416,217.942,614.833,215.296"/>
	</g>
	<g clip-path="url(#SVGID_2_)">
		<defs>
			<polygon id="SVGID_132_" points="24.069,328.443 226.519,445.326 600.645,229.325 398.194,112.441 			"/>
		</defs>
		<clipPath id="SVGID_133_">
			<use xlink:href="#SVGID_132_"  overflow="visible"/>
		</clipPath>
		
			<radialGradient id="SVGID_134_" cx="136.208" cy="389.7715" r="1.7786" gradientTransform="matrix(226.953 131.0312 289.1317 -166.9306 -143497.6563 47360.0977)" gradientUnits="userSpaceOnUse">
			<stop  offset="0" style="stop-color:#2C35A2"/>
			<stop  offset="0.0108" style="stop-color:#2C35A2"/>
			<stop  offset="0.1649" style="stop-color:#252C88"/>
			<stop  offset="0.3981" style="stop-color:#1B2166"/>
			<stop  offset="0.621" style="stop-color:#14194E"/>
			<stop  offset="0.827" style="stop-color:#101540"/>
			<stop  offset="1" style="stop-color:#0F133B"/>
		</radialGradient>
		<polygon clip-path="url(#SVGID_133_)" fill="url(#SVGID_134_)" points="312.356,-54.001 888.93,278.884 312.356,611.77 
			-264.217,278.884 		"/>
	</g>
	<g clip-path="url(#SVGID_2_)">
		<defs>
			<polygon id="SVGID_135_" points="93.519,316.504 247.196,405.232 531.197,241.264 377.516,152.539 			"/>
		</defs>
		<clipPath id="SVGID_136_">
			<use xlink:href="#SVGID_135_"  overflow="visible"/>
		</clipPath>
		
			<linearGradient id="SVGID_137_" gradientUnits="userSpaceOnUse" x1="136.1924" y1="389.7314" x2="137.9707" y2="389.7314" gradientTransform="matrix(246.0898 0 0 -246.0898 -33422.0078 96187.9609)">
			<stop  offset="0" style="stop-color:#A31FA9"/>
			<stop  offset="0.0665" style="stop-color:#8B17A0"/>
			<stop  offset="0.1495" style="stop-color:#750F98"/>
			<stop  offset="0.2398" style="stop-color:#640A92"/>
			<stop  offset="0.3414" style="stop-color:#5B078F"/>
			<stop  offset="0.4785" style="stop-color:#58068E"/>
			<stop  offset="0.621" style="stop-color:#4E20A2"/>
			<stop  offset="0.9248" style="stop-color:#3363D6"/>
			<stop  offset="1" style="stop-color:#2C75E4"/>
		</linearGradient>
		<rect x="93.519" y="152.539" clip-path="url(#SVGID_136_)" fill="url(#SVGID_137_)" width="437.679" height="252.693"/>
	</g>
	<g clip-path="url(#SVGID_2_)">
		<defs>
			<path id="SVGID_138_" d="M496.636,158.164c-0.95,0.551-1.055,1.382-0.229,1.856l21.827,12.604
				c0.824,0.474,2.261,0.416,3.213-0.134c0.953-0.55,1.056-1.382,0.23-1.856l-21.826-12.603c-0.372-0.215-0.872-0.321-1.395-0.321
				C497.823,157.71,497.156,157.865,496.636,158.164"/>
		</defs>
		<clipPath id="SVGID_139_">
			<use xlink:href="#SVGID_138_"  overflow="visible"/>
		</clipPath>
		
			<radialGradient id="SVGID_140_" cx="137.3076" cy="396.543" r="1.7782" gradientTransform="matrix(11.1104 6.4148 11.1104 -6.4148 -5429.7749 1824.0504)" gradientUnits="userSpaceOnUse">
			<stop  offset="0" style="stop-color:#2C35A2"/>
			<stop  offset="0.0108" style="stop-color:#2C35A2"/>
			<stop  offset="0.1649" style="stop-color:#252C88"/>
			<stop  offset="0.3981" style="stop-color:#1B2166"/>
			<stop  offset="0.621" style="stop-color:#14194E"/>
			<stop  offset="0.827" style="stop-color:#101540"/>
			<stop  offset="1" style="stop-color:#0F133B"/>
		</radialGradient>
		<polygon clip-path="url(#SVGID_139_)" fill="url(#SVGID_140_)" points="509.042,149.939 535.829,165.405 509.042,180.871 
			482.256,165.405 		"/>
	</g>
	<g clip-path="url(#SVGID_2_)">
		<defs>
			<rect id="SVGID_141_" x="0.4" width="622.2" height="498.999"/>
		</defs>
		<clipPath id="SVGID_142_">
			<use xlink:href="#SVGID_141_"  overflow="visible"/>
		</clipPath>
		<g opacity="0.8" clip-path="url(#SVGID_142_)">
			<g>
				<defs>
					<rect id="SVGID_143_" x="194.007" y="26.093" width="272.265" height="320.617"/>
				</defs>
				<clipPath id="SVGID_144_">
					<use xlink:href="#SVGID_143_"  overflow="visible"/>
				</clipPath>
				<path clip-path="url(#SVGID_144_)" fill="#6EE1F8" d="M194.007,189.383c0,0,9.387-103.718,29.507-92.062
					c20.117,11.659,10.397,71.79,31.267,83.838c20.537,11.857,9.35-171.742,40.358-153.837c22.259,12.85,15.138,152.297,35,163.765
					c22.296,12.872,15.915-39.656,35.68-37.278c11.339,1.366,17.296,35.475,33.392,43.183
					c16.095,7.707,8.416-140.079,33.866-125.386c25.752,14.87,33.193,275.104,33.193,275.104L194.007,189.383z"/>
			</g>
		</g>
		<path clip-path="url(#SVGID_142_)" fill="#FFFFFF" d="M224.41,96.346c0,2.362-1.914,4.276-4.275,4.276
			c-2.362,0-4.278-1.914-4.278-4.276c0-2.361,1.916-4.275,4.278-4.275C222.496,92.071,224.41,93.985,224.41,96.346"/>
		<path clip-path="url(#SVGID_142_)" fill="#FFFFFF" d="M295.329,26.092c0,2.362-1.914,4.276-4.275,4.276
			c-2.362,0-4.278-1.914-4.278-4.276c0-2.361,1.916-4.275,4.278-4.275C293.415,21.816,295.329,23.73,295.329,26.092"/>
		<path clip-path="url(#SVGID_142_)" fill="#FFFFFF" d="M369.522,153.479c0,2.362-1.914,4.276-4.274,4.276
			c-2.361,0-4.277-1.914-4.277-4.276c0-2.361,1.916-4.275,4.277-4.275C367.608,149.204,369.522,151.118,369.522,153.479"/>
		<path clip-path="url(#SVGID_142_)" fill="#FFFFFF" d="M433.996,70.142c0,2.361-1.912,4.275-4.274,4.275s-4.277-1.914-4.277-4.275
			c0-2.362,1.915-4.276,4.277-4.276S433.996,67.779,433.996,70.142"/>
		<g opacity="0.8" clip-path="url(#SVGID_142_)">
			<g>
				<defs>
					<rect id="SVGID_145_" x="131.562" y="66.914" width="203.191" height="270.731"/>
				</defs>
				<clipPath id="SVGID_146_">
					<use xlink:href="#SVGID_145_"  overflow="visible"/>
				</clipPath>
				<path clip-path="url(#SVGID_146_)" fill="#D4088C" d="M131.562,220.2c0,0,7.006-103.031,22.02-94.322
					c15.015,8.709,7.762,69.024,23.336,78.015c15.326,8.85,6.977-149.541,30.121-136.178c16.608,9.59,11.296,62.599,26.118,71.157
					c16.64,9.608,13.764-16.739,26.63-9.311c12.844,7.417,12.908,40.964,24.918,46.344c12.01,5.379,6.284-114.632,25.273-103.667
					c19.224,11.098,24.774,265.407,24.774,265.407L131.562,220.2z"/>
			</g>
		</g>
		<path clip-path="url(#SVGID_142_)" fill="#FFFFFF" d="M156.628,125.419c0,2.362-1.914,4.276-4.275,4.276
			c-2.362,0-4.276-1.914-4.276-4.276c0-2.361,1.914-4.275,4.276-4.275C154.714,121.144,156.628,123.058,156.628,125.419"/>
		<path clip-path="url(#SVGID_142_)" fill="#FFFFFF" d="M208.798,66.913c0,2.362-1.914,4.276-4.273,4.276
			c-2.362,0-4.278-1.914-4.278-4.276c0-2.361,1.916-4.275,4.278-4.275C206.884,62.638,208.798,64.552,208.798,66.913"/>
		<path clip-path="url(#SVGID_142_)" fill="#FFFFFF" d="M259.981,128.479c0,2.362-1.914,4.276-4.275,4.276
			c-2.362,0-4.278-1.914-4.278-4.276c0-2.361,1.916-4.275,4.278-4.275C258.067,124.204,259.981,126.117,259.981,128.479"/>
		<path clip-path="url(#SVGID_142_)" fill="#FFFFFF" d="M311.707,71.862c0,2.362-1.915,4.276-4.276,4.276
			c-2.36,0-4.276-1.914-4.276-4.276c0-2.361,1.916-4.275,4.276-4.275C309.792,67.587,311.707,69.5,311.707,71.862"/>
		<g opacity="0.8" clip-path="url(#SVGID_142_)">
			<g>
				<defs>
					<rect id="SVGID_147_" x="183.396" y="321.617" width="41.518" height="23.971"/>
				</defs>
				<clipPath id="SVGID_148_">
					<use xlink:href="#SVGID_147_"  overflow="visible"/>
				</clipPath>
				<polygon clip-path="url(#SVGID_148_)" fill="#6EE1F8" points="214.154,345.588 183.396,327.832 194.156,321.617 
					224.915,339.375 				"/>
			</g>
		</g>
		<g opacity="0.8" clip-path="url(#SVGID_142_)">
			<g>
				<defs>
					<rect id="SVGID_149_" x="202.563" y="310.705" width="41.517" height="23.97"/>
				</defs>
				<clipPath id="SVGID_150_">
					<use xlink:href="#SVGID_149_"  overflow="visible"/>
				</clipPath>
				<polygon clip-path="url(#SVGID_150_)" fill="#D4088C" points="233.32,334.673 202.563,316.918 213.322,310.703 244.08,328.462 
									"/>
			</g>
		</g>
		<g opacity="0.4" clip-path="url(#SVGID_142_)">
			<g>
				<defs>
					<rect id="SVGID_151_" x="151.463" y="124.531" width="1.778" height="108.575"/>
				</defs>
				<clipPath id="SVGID_152_">
					<use xlink:href="#SVGID_151_"  overflow="visible"/>
				</clipPath>
				<path clip-path="url(#SVGID_152_)" fill="#FFFFFF" d="M152.352,233.107c-0.491,0-0.889-0.398-0.889-0.889V125.42
					c0-0.492,0.398-0.889,0.889-0.889s0.889,0.397,0.889,0.889v106.798C153.241,232.708,152.843,233.107,152.352,233.107"/>
			</g>
		</g>
		<g opacity="0.4" clip-path="url(#SVGID_142_)">
			<g>
				<defs>
					<rect id="SVGID_153_" x="203.632" y="66.024" width="1.779" height="197.236"/>
				</defs>
				<clipPath id="SVGID_154_">
					<use xlink:href="#SVGID_153_"  overflow="visible"/>
				</clipPath>
				<path clip-path="url(#SVGID_154_)" fill="#FFFFFF" d="M204.521,263.261c-0.49,0-0.889-0.397-0.889-0.889V66.914
					c0-0.492,0.399-0.889,0.889-0.889c0.491,0,0.89,0.397,0.89,0.889v195.458C205.411,262.863,205.012,263.261,204.521,263.261"/>
			</g>
		</g>
		<g opacity="0.4" clip-path="url(#SVGID_142_)">
			<g>
				<defs>
					<rect id="SVGID_155_" x="254.816" y="127.589" width="1.778" height="165.253"/>
				</defs>
				<clipPath id="SVGID_156_">
					<use xlink:href="#SVGID_155_"  overflow="visible"/>
				</clipPath>
				<path clip-path="url(#SVGID_156_)" fill="#FFFFFF" d="M255.705,292.843c-0.49,0-0.889-0.397-0.889-0.889V128.479
					c0-0.492,0.399-0.889,0.889-0.889c0.491,0,0.89,0.397,0.89,0.889v163.475C256.594,292.445,256.195,292.843,255.705,292.843"/>
			</g>
		</g>
		<g opacity="0.4" clip-path="url(#SVGID_142_)">
			<g>
				<defs>
					<rect id="SVGID_157_" x="306.542" y="71.349" width="1.778" height="251.174"/>
				</defs>
				<clipPath id="SVGID_158_">
					<use xlink:href="#SVGID_157_"  overflow="visible"/>
				</clipPath>
				<path clip-path="url(#SVGID_158_)" fill="#FFFFFF" d="M307.43,322.522c-0.491,0-0.889-0.397-0.889-0.89V72.238
					c0-0.491,0.398-0.889,0.889-0.889s0.889,0.398,0.889,0.889v249.395C308.319,322.125,307.92,322.522,307.43,322.522"/>
			</g>
		</g>
		<path clip-path="url(#SVGID_142_)" fill="#FFFFFF" d="M89.339,170.94c-0.277,0-0.553-0.13-0.725-0.376
			c-0.283-0.401-0.191-0.956,0.211-1.239l62.932-44.572l52.102-58.432c0.17-0.193,0.409-0.29,0.678-0.297
			c0.26,0.003,0.503,0.121,0.668,0.32l50.532,60.781l51.037-55.864L367.367,0.31c0.323-0.375,0.881-0.414,1.254-0.1
			c0.374,0.32,0.419,0.881,0.1,1.254l-60.615,70.975l-51.744,56.639c-0.173,0.19-0.413,0.297-0.677,0.29
			c-0.256-0.006-0.499-0.123-0.664-0.32l-50.523-60.772l-51.481,57.734c-0.047,0.051-0.097,0.096-0.149,0.135l-63.014,44.63
			C89.697,170.886,89.519,170.94,89.339,170.94"/>
		<g opacity="0.6" clip-path="url(#SVGID_142_)">
			<g>
				<defs>
					<rect id="SVGID_159_" x="544.168" y="328.987" width="57.498" height="33.203"/>
				</defs>
				<clipPath id="SVGID_160_">
					<use xlink:href="#SVGID_159_"  overflow="visible"/>
				</clipPath>
				<path clip-path="url(#SVGID_160_)" fill="#0C0F38" d="M567.774,361.156l-21.819-12.583c-2.65-1.53-2.315-4.201,0.741-5.968
					l21.026-12.158c3.057-1.767,7.686-1.959,10.334-0.429l21.82,12.583c2.646,1.53,2.316,4.203-0.742,5.968l-21.024,12.158
					C575.052,362.494,570.422,362.687,567.774,361.156"/>
			</g>
		</g>
	</g>
	<g clip-path="url(#SVGID_2_)">
		<defs>
			<path id="SVGID_161_" d="M567.08,363.597l-25.879-14.925c-1.197-0.69-1.856-1.618-1.856-2.615c0-1.251,0.995-2.541,2.737-3.549
				l24.936-14.421c1.91-1.103,4.355-1.669,6.671-1.669c1.902,0,3.712,0.382,5.06,1.16l25.883,14.925
				c1.196,0.694,1.856,1.624,1.856,2.615c0,1.251-0.999,2.545-2.737,3.549l-24.938,14.423c-1.909,1.103-4.357,1.669-6.673,1.666
				C570.241,364.756,568.428,364.375,567.08,363.597 M566.489,327.172l-24.938,14.425c-2.075,1.196-3.265,2.822-3.265,4.46
				c0,1.388,0.846,2.644,2.386,3.529l25.879,14.925c1.494,0.863,3.495,1.288,5.588,1.287c2.508,0,5.147-0.608,7.201-1.795
				l24.938-14.421c2.075-1.198,3.265-2.822,3.265-4.464c0-1.388-0.846-2.642-2.385-3.528l-25.88-14.927
				c-1.494-0.861-3.495-1.285-5.588-1.285C571.183,325.378,568.544,325.985,566.489,327.172"/>
		</defs>
		<clipPath id="SVGID_162_">
			<use xlink:href="#SVGID_161_"  overflow="visible"/>
		</clipPath>
		
			<linearGradient id="SVGID_163_" gradientUnits="userSpaceOnUse" x1="139.1299" y1="388.7041" x2="140.9082" y2="388.7041" gradientTransform="matrix(38.9394 0 0 -38.9394 -4879.3467 15481.4824)">
			<stop  offset="0" style="stop-color:#D4088C"/>
			<stop  offset="0.2258" style="stop-color:#D4088C"/>
			<stop  offset="0.5108" style="stop-color:#6EE1F8"/>
			<stop  offset="0.7796" style="stop-color:#6EE8FC"/>
			<stop  offset="1" style="stop-color:#6EE8FC"/>
		</linearGradient>
		<rect x="538.287" y="325.378" clip-path="url(#SVGID_162_)" fill="url(#SVGID_163_)" width="69.256" height="40.421"/>
	</g>
	<g clip-path="url(#SVGID_2_)">
		<defs>
			<path id="SVGID_164_" d="M567.723,318.524l-5.078,2.95h-18.472v12.406h0.009c-0.076,1.034,0.502,2.032,1.773,2.769l21.818,12.584
				c2.65,1.53,7.278,1.337,10.336-0.429l21.025-12.16c1.59-0.917,2.434-2.079,2.516-3.195h0.016v-12.406h-18.48l-5.127-2.948
				c-1.202-0.694-2.809-1.033-4.489-1.033C571.537,317.062,569.394,317.559,567.723,318.524"/>
		</defs>
		<clipPath id="SVGID_165_">
			<use xlink:href="#SVGID_164_"  overflow="visible"/>
		</clipPath>
		
			<linearGradient id="SVGID_166_" gradientUnits="userSpaceOnUse" x1="139.1055" y1="388.8428" x2="140.8838" y2="388.8428" gradientTransform="matrix(39.3844 0 0 -39.3844 -4939.873 15648.2422)">
			<stop  offset="0" style="stop-color:#A31FA9"/>
			<stop  offset="0.0665" style="stop-color:#8B17A0"/>
			<stop  offset="0.1495" style="stop-color:#750F98"/>
			<stop  offset="0.2398" style="stop-color:#640A92"/>
			<stop  offset="0.3414" style="stop-color:#5B078F"/>
			<stop  offset="0.4785" style="stop-color:#58068E"/>
			<stop  offset="0.621" style="stop-color:#4E20A2"/>
			<stop  offset="0.9248" style="stop-color:#3363D6"/>
			<stop  offset="1" style="stop-color:#2C75E4"/>
		</linearGradient>
		<rect x="544.105" y="317.062" clip-path="url(#SVGID_165_)" fill="url(#SVGID_166_)" width="57.561" height="33.702"/>
	</g>
	<g clip-path="url(#SVGID_2_)">
		<defs>
			<path id="SVGID_167_" d="M601.65,332.591c-0.082,1.122-0.926,2.282-2.516,3.199l-21.025,12.159
				c-3.058,1.764-7.686,1.958-10.336,0.428l-21.818-12.582c-1.271-0.734-1.85-1.734-1.773-2.77h-0.009v0.855h0.009
				c-0.076,1.034,0.502,2.032,1.773,2.769l21.818,12.584c2.65,1.53,7.278,1.337,10.336-0.429l21.025-12.16
				c1.59-0.917,2.434-2.079,2.516-3.195h0.016v-0.858H601.65z"/>
		</defs>
		<clipPath id="SVGID_168_">
			<use xlink:href="#SVGID_167_"  overflow="visible"/>
		</clipPath>
		
			<linearGradient id="SVGID_169_" gradientUnits="userSpaceOnUse" x1="139.1055" y1="388.7568" x2="140.8838" y2="388.7568" gradientTransform="matrix(39.3844 0 0 -39.3844 -4939.873 15652.6172)">
			<stop  offset="0" style="stop-color:#D4088C"/>
			<stop  offset="0.2258" style="stop-color:#D4088C"/>
			<stop  offset="0.5108" style="stop-color:#6EE1F8"/>
			<stop  offset="0.7796" style="stop-color:#6EE8FC"/>
			<stop  offset="1" style="stop-color:#6EE8FC"/>
		</linearGradient>
		<rect x="544.105" y="332.591" clip-path="url(#SVGID_168_)" fill="url(#SVGID_169_)" width="57.561" height="18.173"/>
	</g>
	<g clip-path="url(#SVGID_2_)">
		<defs>
			<rect id="SVGID_170_" x="0.4" width="622.2" height="498.999"/>
		</defs>
		<clipPath id="SVGID_171_">
			<use xlink:href="#SVGID_170_"  overflow="visible"/>
		</clipPath>
		<path clip-path="url(#SVGID_171_)" fill="#D4088C" d="M545.347,334.735h-0.007v-12.406h18.472l5.075-2.95
			c3.06-1.767,7.688-1.958,10.337-0.43l5.129,2.948h17.313v-0.856h-18.48l-5.127-2.946c-2.652-1.53-7.277-1.337-10.336,0.428
			l-5.078,2.952h-18.47v12.406h0.007c-0.076,1.035,0.502,2.032,1.774,2.769l0.211,0.122
			C545.567,336.16,545.295,335.458,545.347,334.735"/>
	</g>
	<g clip-path="url(#SVGID_2_)">
		<defs>
			<path id="SVGID_172_" d="M567.723,306.118l-21.024,12.157c-3.059,1.767-3.393,4.439-0.743,5.97l21.818,12.582
				c2.65,1.53,7.278,1.339,10.336-0.428l21.025-12.157c3.059-1.769,3.389-4.439,0.74-5.97l-21.816-12.584
				c-1.202-0.692-2.809-1.031-4.489-1.031C571.537,304.657,569.396,305.152,567.723,306.118"/>
		</defs>
		<clipPath id="SVGID_173_">
			<use xlink:href="#SVGID_172_"  overflow="visible"/>
		</clipPath>
		
			<linearGradient id="SVGID_174_" gradientUnits="userSpaceOnUse" x1="139.9854" y1="388.0947" x2="141.764" y2="388.0947" gradientTransform="matrix(32.1304 -8.007000e-004 4.6381 -18.7439 -5754.1582 7596.0415)">
			<stop  offset="0" style="stop-color:#8D139B"/>
			<stop  offset="0.1652" style="stop-color:#851CA1"/>
			<stop  offset="0.4291" style="stop-color:#6E33B2"/>
			<stop  offset="0.7568" style="stop-color:#4958CD"/>
			<stop  offset="1" style="stop-color:#2979E4"/>
		</linearGradient>
		<polygon clip-path="url(#SVGID_173_)" fill="url(#SVGID_174_)" points="543.306,304.657 610.864,304.657 602.523,338.357 
			534.968,338.358 		"/>
	</g>
	<g clip-path="url(#SVGID_2_)">
		<defs>
			<rect id="SVGID_175_" x="0.4" width="622.2" height="498.999"/>
		</defs>
		<clipPath id="SVGID_176_">
			<use xlink:href="#SVGID_175_"  overflow="visible"/>
		</clipPath>
		<path clip-path="url(#SVGID_176_)" fill="#6EE8FC" d="M599.875,318.272l-21.818-12.584c-1.37-0.792-3.273-1.118-5.214-1.007
			c1.41,0.085,2.732,0.417,3.755,1.007l21.822,12.584c2.648,1.53,2.314,4.201-0.744,5.968l-21.024,12.159
			c-1.475,0.852-3.313,1.332-5.12,1.435c2.237,0.136,4.702-0.353,6.579-1.435l21.023-12.159
			C602.193,322.474,602.523,319.803,599.875,318.272"/>
		<path clip-path="url(#SVGID_176_)" fill="#D4088C" d="M569.445,336.827l-21.819-12.584c-2.649-1.528-2.315-4.201,0.741-5.968
			l21.026-12.157c1.45-0.839,3.258-1.318,5.038-1.432c-2.273-0.161-4.799,0.326-6.711,1.432l-21.022,12.157
			c-3.061,1.767-3.393,4.439-0.742,5.968l21.818,12.584c1.392,0.804,3.33,1.127,5.298,1.002
			C571.709,337.731,570.439,337.4,569.445,336.827"/>
		<path clip-path="url(#SVGID_176_)" fill="#6EE8FC" d="M583.585,327.417c-5.893,3.402-15.445,3.402-21.337,0
			c-5.893-3.401-5.893-8.917,0-12.318c5.89-3.402,15.444-3.402,21.336,0C589.477,318.502,589.477,324.016,583.585,327.417"/>
		<path clip-path="url(#SVGID_176_)" fill="#267FE5" d="M562.248,318.344c5.892-3.401,15.444-3.401,21.334,0
			c2.229,1.288,3.61,2.876,4.154,4.538c0.895-2.732-0.488-5.667-4.154-7.783c-5.89-3.398-15.442-3.402-21.334,0
			c-3.665,2.116-5.047,5.05-4.154,7.781C558.639,321.218,560.02,319.632,562.248,318.344"/>
		<g opacity="0.6" clip-path="url(#SVGID_176_)">
			<g>
				<defs>
					<rect id="SVGID_177_" x="459.625" y="379.06" width="57.498" height="33.204"/>
				</defs>
				<clipPath id="SVGID_178_">
					<use xlink:href="#SVGID_177_"  overflow="visible"/>
				</clipPath>
				<path clip-path="url(#SVGID_178_)" fill="#0C0F38" d="M483.232,411.229l-21.82-12.583c-2.65-1.53-2.315-4.201,0.742-5.968
					l21.025-12.158c3.058-1.767,7.686-1.959,10.335-0.429l21.819,12.583c2.647,1.53,2.317,4.203-0.741,5.968l-21.024,12.158
					C490.51,412.567,485.881,412.76,483.232,411.229"/>
			</g>
		</g>
	</g>
	<g clip-path="url(#SVGID_2_)">
		<defs>
			<path id="SVGID_179_" d="M482.537,413.672l-25.879-14.927c-1.196-0.691-1.856-1.622-1.856-2.613c0-1.253,0.997-2.545,2.737-3.551
				l24.936-14.423c1.911-1.101,4.358-1.667,6.672-1.667c1.899,0,3.71,0.384,5.061,1.162l25.879,14.925
				c1.199,0.691,1.857,1.62,1.857,2.615c0,1.249-0.997,2.539-2.737,3.547l-24.937,14.425c-1.908,1.099-4.357,1.663-6.675,1.663
				C485.696,414.828,483.885,414.448,482.537,413.672 M481.947,377.245l-24.937,14.423c-2.075,1.2-3.265,2.825-3.265,4.464
				c0,1.388,0.844,2.642,2.385,3.527l25.879,14.926c1.495,0.863,3.496,1.286,5.587,1.284c2.507,0,5.146-0.606,7.203-1.793
				l24.934-14.424c2.077-1.195,3.266-2.821,3.266-4.459c0-1.39-0.844-2.644-2.385-3.529l-25.879-14.926
				c-1.494-0.863-3.494-1.287-5.589-1.287C486.64,375.452,484.002,376.059,481.947,377.245"/>
		</defs>
		<clipPath id="SVGID_180_">
			<use xlink:href="#SVGID_179_"  overflow="visible"/>
		</clipPath>
		
			<linearGradient id="SVGID_181_" gradientUnits="userSpaceOnUse" x1="138.1787" y1="388.1416" x2="139.957" y2="388.1416" gradientTransform="matrix(38.9395 0 0 -38.9395 -4926.8774 15509.6943)">
			<stop  offset="0" style="stop-color:#D4088C"/>
			<stop  offset="0.2258" style="stop-color:#D4088C"/>
			<stop  offset="0.5108" style="stop-color:#6EE1F8"/>
			<stop  offset="0.7796" style="stop-color:#6EE8FC"/>
			<stop  offset="1" style="stop-color:#6EE8FC"/>
		</linearGradient>
		<rect x="453.746" y="375.451" clip-path="url(#SVGID_180_)" fill="url(#SVGID_181_)" width="69.253" height="40.42"/>
	</g>
	<g clip-path="url(#SVGID_2_)">
		<defs>
			<path id="SVGID_182_" d="M483.18,368.596l-5.08,2.952h-18.468v12.405h0.007c-0.078,1.036,0.5,2.033,1.775,2.77l21.816,12.582
				c2.65,1.53,7.279,1.341,10.338-0.428l21.024-12.157c1.587-0.919,2.435-2.081,2.517-3.199h0.012v-12.408h-18.478l-5.129-2.944
				c-1.2-0.694-2.808-1.033-4.488-1.033C486.994,367.135,484.853,367.63,483.18,368.596"/>
		</defs>
		<clipPath id="SVGID_183_">
			<use xlink:href="#SVGID_182_"  overflow="visible"/>
		</clipPath>
		
			<linearGradient id="SVGID_184_" gradientUnits="userSpaceOnUse" x1="138.1665" y1="388.2852" x2="139.9449" y2="388.2852" gradientTransform="matrix(39.3845 0 0 -39.3845 -4987.4111 15676.46)">
			<stop  offset="0" style="stop-color:#A31FA9"/>
			<stop  offset="0.0665" style="stop-color:#8B17A0"/>
			<stop  offset="0.1495" style="stop-color:#750F98"/>
			<stop  offset="0.2398" style="stop-color:#640A92"/>
			<stop  offset="0.3414" style="stop-color:#5B078F"/>
			<stop  offset="0.4785" style="stop-color:#58068E"/>
			<stop  offset="0.621" style="stop-color:#4E20A2"/>
			<stop  offset="0.9248" style="stop-color:#3363D6"/>
			<stop  offset="1" style="stop-color:#2C75E4"/>
		</linearGradient>
		<rect x="459.561" y="367.135" clip-path="url(#SVGID_183_)" fill="url(#SVGID_184_)" width="57.561" height="33.7"/>
	</g>
	<g clip-path="url(#SVGID_2_)">
		<defs>
			<path id="SVGID_185_" d="M459.632,383.313v-0.074C459.632,383.264,459.632,383.289,459.632,383.313 M459.632,383.099v0.141
				c0.002-0.047,0.004-0.094,0.007-0.141H459.632z M517.109,382.664c-0.082,1.12-0.93,2.282-2.517,3.199l-21.024,12.156
				c-3.059,1.768-7.688,1.961-10.338,0.431l-21.816-12.583c-1.187-0.685-1.769-1.595-1.782-2.554v0.64h0.007
				c-0.078,1.036,0.5,2.033,1.775,2.77l21.816,12.582c2.65,1.53,7.279,1.341,10.338-0.428l21.024-12.157
				c1.587-0.919,2.435-2.081,2.517-3.199h0.012v-0.856H517.109z"/>
		</defs>
		<clipPath id="SVGID_186_">
			<use xlink:href="#SVGID_185_"  overflow="visible"/>
		</clipPath>
		
			<linearGradient id="SVGID_187_" gradientUnits="userSpaceOnUse" x1="138.166" y1="388.2002" x2="139.9444" y2="388.2002" gradientTransform="matrix(39.3845 0 0 -39.3845 -4987.4053 15680.7988)">
			<stop  offset="0" style="stop-color:#D4088C"/>
			<stop  offset="0.2258" style="stop-color:#D4088C"/>
			<stop  offset="0.5108" style="stop-color:#6EE1F8"/>
			<stop  offset="0.7796" style="stop-color:#6EE8FC"/>
			<stop  offset="1" style="stop-color:#6EE8FC"/>
		</linearGradient>
		<rect x="459.561" y="382.664" clip-path="url(#SVGID_186_)" fill="url(#SVGID_187_)" width="57.561" height="18.171"/>
	</g>
	<g clip-path="url(#SVGID_2_)">
		<defs>
			<rect id="SVGID_188_" x="0.4" width="622.2" height="498.999"/>
		</defs>
		<clipPath id="SVGID_189_">
			<use xlink:href="#SVGID_188_"  overflow="visible"/>
		</clipPath>
		<path clip-path="url(#SVGID_189_)" fill="#D4088C" d="M460.805,384.809h-0.008v-12.406h18.472l5.075-2.95
			c3.059-1.767,7.689-1.958,10.338-0.43l5.129,2.948h17.311v-0.856h-18.478l-5.128-2.946c-2.651-1.53-7.277-1.337-10.337,0.428
			l-5.077,2.952h-18.468v12.406h0.005c-0.076,1.035,0.502,2.032,1.775,2.769l0.208,0.122
			C461.024,386.233,460.752,385.531,460.805,384.809"/>
	</g>
	<g clip-path="url(#SVGID_2_)">
		<defs>
			<path id="SVGID_190_" d="M483.18,356.192l-21.024,12.156c-3.059,1.769-3.394,4.439-0.741,5.967L483.23,386.9
				c2.65,1.531,7.279,1.337,10.338-0.426l21.024-12.161c3.059-1.765,3.389-4.437,0.741-5.968l-21.819-12.582
				c-1.2-0.693-2.808-1.033-4.488-1.033C486.994,354.73,484.853,355.226,483.18,356.192"/>
		</defs>
		<clipPath id="SVGID_191_">
			<use xlink:href="#SVGID_190_"  overflow="visible"/>
		</clipPath>
		
			<linearGradient id="SVGID_192_" gradientUnits="userSpaceOnUse" x1="139.0024" y1="386.9248" x2="140.7815" y2="386.9248" gradientTransform="matrix(32.1304 -8.007000e-004 4.6381 -18.7439 -5801.7017 7624.2065)">
			<stop  offset="0" style="stop-color:#8D139B"/>
			<stop  offset="0.1652" style="stop-color:#851CA1"/>
			<stop  offset="0.4291" style="stop-color:#6E33B2"/>
			<stop  offset="0.7568" style="stop-color:#4958CD"/>
			<stop  offset="1" style="stop-color:#2979E4"/>
		</linearGradient>
		<polygon clip-path="url(#SVGID_191_)" fill="url(#SVGID_192_)" points="458.762,354.73 526.321,354.729 517.981,388.432 
			450.423,388.434 		"/>
	</g>
	<g clip-path="url(#SVGID_2_)">
		<defs>
			<rect id="SVGID_193_" x="0.4" width="622.2" height="498.999"/>
		</defs>
		<clipPath id="SVGID_194_">
			<use xlink:href="#SVGID_193_"  overflow="visible"/>
		</clipPath>
		<path clip-path="url(#SVGID_194_)" fill="#6EE8FC" d="M515.334,368.346l-21.819-12.584c-1.371-0.792-3.274-1.118-5.215-1.007
			c1.411,0.085,2.732,0.417,3.756,1.007l21.821,12.584c2.648,1.53,2.315,4.201-0.743,5.968l-21.024,12.159
			c-1.475,0.852-3.314,1.332-5.12,1.435c2.236,0.136,4.701-0.353,6.579-1.435l21.024-12.159
			C517.651,372.547,517.981,369.876,515.334,368.346"/>
		<path clip-path="url(#SVGID_194_)" fill="#D4088C" d="M484.904,386.9l-21.821-12.584c-2.648-1.528-2.315-4.201,0.741-5.968
			l21.026-12.157c1.45-0.839,3.259-1.318,5.039-1.43c-2.273-0.163-4.799,0.324-6.711,1.43l-21.023,12.157
			c-3.06,1.767-3.392,4.439-0.741,5.968l21.818,12.584c1.391,0.804,3.329,1.127,5.297,1.002
			C487.166,387.805,485.896,387.474,484.904,386.9"/>
		<path clip-path="url(#SVGID_194_)" fill="#6EE8FC" d="M499.043,377.49c-5.894,3.402-15.446,3.402-21.338,0
			c-5.893-3.401-5.893-8.917,0-12.318c5.89-3.402,15.444-3.402,21.338,0C504.934,368.575,504.934,374.089,499.043,377.49"/>
		<path clip-path="url(#SVGID_194_)" fill="#267FE5" d="M477.705,368.417c5.892-3.401,15.444-3.401,21.336,0
			c2.227,1.288,3.609,2.876,4.152,4.538c0.895-2.732-0.487-5.667-4.152-7.783c-5.892-3.398-15.444-3.402-21.336,0
			c-3.664,2.116-5.047,5.05-4.154,7.781C474.097,371.291,475.478,369.705,477.705,368.417"/>
		<g opacity="0.6" clip-path="url(#SVGID_194_)">
			<g>
				<defs>
					<rect id="SVGID_195_" x="375.081" y="429.133" width="57.498" height="33.204"/>
				</defs>
				<clipPath id="SVGID_196_">
					<use xlink:href="#SVGID_195_"  overflow="visible"/>
				</clipPath>
				<path clip-path="url(#SVGID_196_)" fill="#0C0F38" d="M398.689,461.303l-21.82-12.583c-2.65-1.528-2.314-4.201,0.742-5.968
					l21.026-12.158c3.057-1.767,7.686-1.959,10.334-0.429l21.82,12.583c2.646,1.53,2.316,4.203-0.742,5.968l-21.024,12.158
					C405.967,462.641,401.338,462.833,398.689,461.303"/>
			</g>
		</g>
	</g>
	<g clip-path="url(#SVGID_2_)">
		<defs>
			<path id="SVGID_197_" d="M397.995,463.743l-25.879-14.925c-1.199-0.689-1.857-1.62-1.857-2.615c0-1.251,0.995-2.543,2.737-3.547
				l24.937-14.425c1.908-1.101,4.355-1.667,6.671-1.667c1.9,0,3.712,0.382,5.062,1.16l25.88,14.925
				c1.195,0.693,1.857,1.622,1.857,2.617c0,1.251-0.997,2.541-2.739,3.547l-24.935,14.423c-1.91,1.101-4.357,1.667-6.673,1.667
				C401.154,464.903,399.343,464.523,397.995,463.743 M397.406,427.318l-24.938,14.423c-2.077,1.196-3.266,2.824-3.266,4.462
				c0,1.388,0.846,2.642,2.385,3.529l25.881,14.926c1.492,0.862,3.492,1.286,5.587,1.284c2.505,0,5.145-0.606,7.201-1.793
				l24.935-14.423c2.075-1.196,3.265-2.82,3.265-4.46c0-1.39-0.844-2.644-2.385-3.531l-25.879-14.924
				c-1.493-0.863-3.494-1.286-5.589-1.286C402.098,425.525,399.459,426.134,397.406,427.318"/>
		</defs>
		<clipPath id="SVGID_198_">
			<use xlink:href="#SVGID_197_"  overflow="visible"/>
		</clipPath>
		
			<linearGradient id="SVGID_199_" gradientUnits="userSpaceOnUse" x1="137.229" y1="387.5791" x2="139.0073" y2="387.5791" gradientTransform="matrix(38.9394 0 0 -38.9394 -4974.4092 15537.7949)">
			<stop  offset="0" style="stop-color:#D4088C"/>
			<stop  offset="0.2258" style="stop-color:#D4088C"/>
			<stop  offset="0.5108" style="stop-color:#6EE1F8"/>
			<stop  offset="0.7796" style="stop-color:#6EE8FC"/>
			<stop  offset="1" style="stop-color:#6EE8FC"/>
		</linearGradient>
		<rect x="369.203" y="425.525" clip-path="url(#SVGID_198_)" fill="url(#SVGID_199_)" width="69.253" height="40.419"/>
	</g>
	<g clip-path="url(#SVGID_2_)">
		<defs>
			<path id="SVGID_200_" d="M398.638,418.669l-5.08,2.952h-18.469v12.405h0.006c-0.076,1.035,0.502,2.033,1.774,2.771l21.82,12.58
				c2.647,1.53,7.277,1.337,10.336-0.426l21.022-12.161c1.59-0.917,2.438-2.081,2.519-3.197h0.013v-12.406h-18.477l-5.131-2.946
				c-1.202-0.692-2.807-1.033-4.491-1.033C402.45,417.208,400.309,417.703,398.638,418.669"/>
		</defs>
		<clipPath id="SVGID_201_">
			<use xlink:href="#SVGID_200_"  overflow="visible"/>
		</clipPath>
		
			<linearGradient id="SVGID_202_" gradientUnits="userSpaceOnUse" x1="137.2266" y1="387.7295" x2="139.0049" y2="387.7295" gradientTransform="matrix(39.3844 0 0 -39.3844 -5034.9355 15704.5547)">
			<stop  offset="0" style="stop-color:#A31FA9"/>
			<stop  offset="0.0665" style="stop-color:#8B17A0"/>
			<stop  offset="0.1495" style="stop-color:#750F98"/>
			<stop  offset="0.2398" style="stop-color:#640A92"/>
			<stop  offset="0.3414" style="stop-color:#5B078F"/>
			<stop  offset="0.4785" style="stop-color:#58068E"/>
			<stop  offset="0.621" style="stop-color:#4E20A2"/>
			<stop  offset="0.9248" style="stop-color:#3363D6"/>
			<stop  offset="1" style="stop-color:#2C75E4"/>
		</linearGradient>
		<rect x="375.019" y="417.208" clip-path="url(#SVGID_201_)" fill="url(#SVGID_202_)" width="57.561" height="33.7"/>
	</g>
	<g clip-path="url(#SVGID_2_)">
		<defs>
			<path id="SVGID_203_" d="M375.089,433.389v-0.075C375.089,433.338,375.089,433.362,375.089,433.389 M375.089,433.173v0.141
				c0-0.047,0.002-0.095,0.006-0.141H375.089z M432.566,432.739c-0.081,1.12-0.929,2.282-2.519,3.197l-21.022,12.158
				c-3.059,1.766-7.688,1.961-10.336,0.429l-21.82-12.584c-1.184-0.682-1.768-1.594-1.78-2.551v0.638h0.006
				c-0.076,1.035,0.502,2.033,1.774,2.771l21.82,12.58c2.648,1.53,7.277,1.337,10.336-0.426l21.022-12.161
				c1.59-0.917,2.438-2.081,2.519-3.197h0.013v-0.854H432.566z"/>
		</defs>
		<clipPath id="SVGID_204_">
			<use xlink:href="#SVGID_203_"  overflow="visible"/>
		</clipPath>
		
			<linearGradient id="SVGID_205_" gradientUnits="userSpaceOnUse" x1="137.2271" y1="387.6416" x2="139.0054" y2="387.6416" gradientTransform="matrix(39.3845 0 0 -39.3845 -5034.9424 15708.96)">
			<stop  offset="0" style="stop-color:#D4088C"/>
			<stop  offset="0.2258" style="stop-color:#D4088C"/>
			<stop  offset="0.5108" style="stop-color:#6EE1F8"/>
			<stop  offset="0.7796" style="stop-color:#6EE8FC"/>
			<stop  offset="1" style="stop-color:#6EE8FC"/>
		</linearGradient>
		<rect x="375.019" y="432.739" clip-path="url(#SVGID_204_)" fill="url(#SVGID_205_)" width="57.561" height="18.169"/>
	</g>
	<g clip-path="url(#SVGID_2_)">
		<defs>
			<rect id="SVGID_206_" x="0.4" width="622.2" height="498.999"/>
		</defs>
		<clipPath id="SVGID_207_">
			<use xlink:href="#SVGID_206_"  overflow="visible"/>
		</clipPath>
		<path clip-path="url(#SVGID_207_)" fill="#D4088C" d="M376.26,434.882h-0.005v-12.406h18.472l5.074-2.95
			c3.059-1.767,7.689-1.958,10.338-0.43l5.129,2.947h17.312v-0.855h-18.479l-5.127-2.944c-2.652-1.532-7.277-1.339-10.338,0.426
			l-5.077,2.952h-18.47v12.406h0.008c-0.077,1.035,0.502,2.032,1.774,2.769l0.21,0.122
			C376.48,436.307,376.21,435.604,376.26,434.882"/>
	</g>
	<g clip-path="url(#SVGID_2_)">
		<defs>
			<path id="SVGID_208_" d="M398.638,406.266l-21.026,12.16c-3.059,1.765-3.393,4.438-0.742,5.964l21.82,12.584
				c2.648,1.53,7.277,1.337,10.336-0.428l21.022-12.159c3.059-1.767,3.393-4.438,0.744-5.968l-21.82-12.584
				c-1.2-0.692-2.805-1.031-4.488-1.031C402.451,404.804,400.309,405.299,398.638,406.266"/>
		</defs>
		<clipPath id="SVGID_209_">
			<use xlink:href="#SVGID_208_"  overflow="visible"/>
		</clipPath>
		
			<linearGradient id="SVGID_210_" gradientUnits="userSpaceOnUse" x1="138.02" y1="385.7568" x2="139.799" y2="385.7568" gradientTransform="matrix(32.1304 -8.007000e-004 4.6381 -18.7439 -5849.2354 7652.3623)">
			<stop  offset="0" style="stop-color:#8D139B"/>
			<stop  offset="0.1652" style="stop-color:#851CA1"/>
			<stop  offset="0.4291" style="stop-color:#6E33B2"/>
			<stop  offset="0.7568" style="stop-color:#4958CD"/>
			<stop  offset="1" style="stop-color:#2979E4"/>
		</linearGradient>
		<polygon clip-path="url(#SVGID_209_)" fill="url(#SVGID_210_)" points="374.219,404.804 441.779,404.802 433.44,438.504 
			365.881,438.505 		"/>
	</g>
	<g clip-path="url(#SVGID_2_)">
		<defs>
			<rect id="SVGID_211_" x="0.4" width="622.2" height="498.999"/>
		</defs>
		<clipPath id="SVGID_212_">
			<use xlink:href="#SVGID_211_"  overflow="visible"/>
		</clipPath>
		<path clip-path="url(#SVGID_212_)" fill="#6EE8FC" d="M430.792,418.419l-21.82-12.584c-1.37-0.792-3.274-1.118-5.214-1.007
			c1.41,0.085,2.731,0.417,3.755,1.007l21.821,12.584c2.649,1.53,2.315,4.201-0.743,5.968l-21.024,12.159
			c-1.475,0.852-3.313,1.332-5.12,1.435c2.237,0.136,4.702-0.353,6.579-1.435l21.024-12.159
			C433.108,422.62,433.438,419.949,430.792,418.419"/>
		<path clip-path="url(#SVGID_212_)" fill="#D4088C" d="M400.358,436.974L378.54,424.39c-2.648-1.528-2.314-4.201,0.742-5.968
			l21.026-12.157c1.45-0.839,3.258-1.318,5.038-1.43c-2.273-0.163-4.799,0.324-6.711,1.43l-21.024,12.157
			c-3.059,1.767-3.391,4.439-0.74,5.968l21.818,12.584c1.392,0.804,3.33,1.127,5.298,1.002
			C402.623,437.878,401.354,437.547,400.358,436.974"/>
		<path clip-path="url(#SVGID_212_)" fill="#6EE8FC" d="M414.498,427.563c-5.891,3.402-15.443,3.402-21.335,0
			c-5.894-3.401-5.894-8.917,0-12.318c5.89-3.402,15.444-3.4,21.333,0C420.392,418.647,420.392,424.162,414.498,427.563"/>
		<path clip-path="url(#SVGID_212_)" fill="#267FE5" d="M393.163,418.49c5.892-3.401,15.444-3.401,21.333,0
			c2.23,1.288,3.611,2.876,4.156,4.538c0.894-2.732-0.489-5.667-4.156-7.783c-5.889-3.398-15.441-3.402-21.333,0
			c-3.665,2.116-5.048,5.05-4.154,7.781C389.554,421.364,390.935,419.778,393.163,418.49"/>
	</g>
</g>
</svg>
